<?xml version="1.0" encoding="UTF-8"?>
<svg xmlns="http://www.w3.org/2000/svg" xmlns:xlink="http://www.w3.org/1999/xlink" width="70px" height="70px" viewBox="0 0 24 24" version="1.1">
<g id="surface1">
<path style="stroke: none; fill-rule: nonzero; fill: #e2e2d8; fill-opacity: 1" d="M 0 0 C 7.921875 0 15.839844 0 24 0 C 24 7.921875 24 15.839844 24 24 C 16.078125 24 8.160156 24 0 24 C 0 16.078125 0 8.160156 0 0 Z M 0 0 "></path>
<path style="stroke: none; fill-rule: nonzero; fill: #111918; fill-opacity: 1" d="M 16.992188 3.796875 C 17.316406 3.804688 17.640625 3.8125 17.976562 3.820312 C 17.984375 6.164062 17.992188 8.507812 18 10.921875 C 16.296875 10.914062 14.597656 10.90625 12.84375 10.898438 C 12.84375 11.105469 12.84375 11.316406 12.84375 11.53125 C 12.894531 11.53125 12.945312 11.527344 13 11.527344 C 13.484375 11.511719 13.96875 11.503906 14.457031 11.503906 C 14.550781 11.503906 14.644531 11.503906 14.738281 11.503906 C 14.894531 11.503906 15.050781 11.503906 15.207031 11.503906 C 15.386719 11.503906 15.566406 11.503906 15.746094 11.503906 C 15.902344 11.503906 16.058594 11.503906 16.214844 11.503906 C 16.308594 11.503906 16.398438 11.503906 16.492188 11.503906 C 17.003906 11.503906 17.511719 11.515625 18.023438 11.53125 C 18.023438 11.832031 18.023438 12.132812 18.023438 12.445312 C 15.972656 12.453125 13.925781 12.460938 11.8125 12.46875 C 11.820312 11.554688 11.828125 10.644531 11.835938 9.703125 C 11.835938 9.109375 11.839844 8.511719 11.835938 7.917969 C 11.835938 7.710938 11.835938 7.503906 11.835938 7.296875 C 11.835938 6.949219 11.835938 6.605469 11.835938 6.257812 C 11.015625 6.257812 10.195312 6.257812 9.351562 6.257812 C 9.351562 6.40625 9.351562 6.550781 9.351562 6.703125 C 9.351562 6.839844 9.347656 6.976562 9.347656 7.109375 C 9.347656 7.148438 9.34375 7.183594 9.34375 7.21875 C 9.34375 7.316406 9.34375 7.410156 9.339844 7.503906 C 9.339844 7.601562 9.335938 7.699219 9.335938 7.796875 C 9.332031 7.988281 9.332031 8.175781 9.328125 8.367188 C 9.355469 8.367188 9.378906 8.367188 9.40625 8.367188 C 9.65625 8.363281 9.902344 8.359375 10.152344 8.355469 C 10.277344 8.355469 10.40625 8.355469 10.53125 8.351562 C 10.65625 8.351562 10.777344 8.347656 10.902344 8.347656 C 10.949219 8.347656 10.996094 8.347656 11.042969 8.34375 C 11.109375 8.34375 11.171875 8.34375 11.238281 8.34375 C 11.257812 8.34375 11.277344 8.34375 11.296875 8.34375 C 11.433594 8.339844 11.433594 8.339844 11.484375 8.367188 C 11.480469 8.394531 11.476562 8.425781 11.472656 8.453125 C 11.421875 8.859375 11.421875 8.859375 11.484375 9.257812 C 11.484375 9.289062 11.484375 9.320312 11.484375 9.351562 C 11.414062 9.386719 11.347656 9.378906 11.269531 9.375 C 11.242188 9.375 11.210938 9.375 11.179688 9.375 C 11.144531 9.375 11.144531 9.375 11.109375 9.375 C 11.117188 9.390625 11.125 9.40625 11.132812 9.421875 C 11.136719 9.480469 11.136719 9.542969 11.136719 9.601562 C 11.136719 9.621094 11.136719 9.640625 11.136719 9.660156 C 11.136719 9.722656 11.136719 9.785156 11.136719 9.847656 C 11.136719 9.894531 11.136719 9.9375 11.136719 9.984375 C 11.136719 10.109375 11.136719 10.230469 11.136719 10.355469 C 11.136719 10.484375 11.136719 10.613281 11.136719 10.738281 C 11.136719 10.984375 11.132812 11.226562 11.132812 11.472656 C 11.132812 11.75 11.132812 12.027344 11.132812 12.304688 C 11.132812 12.875 11.132812 13.445312 11.132812 14.015625 C 10.761719 14.015625 10.390625 14.015625 10.007812 14.015625 C 10.007812 13.804688 10.007812 13.59375 10.007812 13.382812 C 10.007812 13.367188 10.007812 13.351562 10.007812 13.332031 C 10.003906 12.476562 10.011719 11.617188 10.019531 10.761719 C 10.019531 10.742188 10.019531 10.726562 10.019531 10.707031 C 10.023438 10.257812 10.027344 9.804688 10.03125 9.351562 C 9.808594 9.351562 9.582031 9.351562 9.351562 9.351562 C 9.34375 10.890625 9.335938 12.429688 9.328125 14.015625 C 9.003906 14.015625 8.679688 14.015625 8.34375 14.015625 C 8.34375 11.152344 8.34375 8.292969 8.34375 5.34375 C 9.835938 5.34375 11.328125 5.34375 12.867188 5.34375 C 12.867188 5.929688 12.867188 6.519531 12.867188 7.125 C 12.867188 7.308594 12.867188 7.492188 12.871094 7.679688 C 12.871094 7.910156 12.871094 7.910156 12.871094 8.019531 C 12.871094 8.09375 12.871094 8.164062 12.871094 8.238281 C 12.871094 8.8125 12.859375 9.386719 12.84375 9.960938 C 12.867188 9.960938 12.890625 9.960938 12.917969 9.960938 C 13.101562 9.960938 13.289062 9.960938 13.476562 9.960938 C 13.605469 9.960938 13.738281 9.960938 13.867188 9.960938 C 14.910156 9.957031 15.949219 9.972656 16.992188 9.984375 C 16.992188 7.941406 16.992188 5.902344 16.992188 3.796875 Z M 16.992188 3.796875 "></path>
<path style="stroke: none; fill-rule: nonzero; fill: #0f1817; fill-opacity: 1" d="M 6.703125 3.796875 C 8.746094 3.796875 10.785156 3.796875 12.890625 3.796875 C 12.890625 4.105469 12.890625 4.414062 12.890625 4.734375 C 11.171875 4.734375 9.457031 4.734375 7.6875 4.734375 C 7.6875 7.796875 7.6875 10.859375 7.6875 14.015625 C 7.363281 14.007812 7.039062 14 6.703125 13.992188 C 6.703125 10.628906 6.703125 7.261719 6.703125 3.796875 Z M 6.703125 3.796875 "></path>
<path style="stroke: none; fill-rule: nonzero; fill: #f0530c; fill-opacity: 1" d="M 14.648438 3.796875 C 14.648438 4.476562 14.644531 5.152344 14.640625 5.832031 C 14.640625 5.910156 14.640625 5.992188 14.640625 6.070312 C 14.640625 6.085938 14.640625 6.101562 14.640625 6.121094 C 14.640625 6.378906 14.640625 6.636719 14.636719 6.894531 C 14.636719 7.15625 14.636719 7.421875 14.636719 7.6875 C 14.636719 7.835938 14.632812 7.984375 14.632812 8.132812 C 14.632812 8.273438 14.632812 8.414062 14.632812 8.554688 C 14.632812 8.605469 14.632812 8.65625 14.632812 8.707031 C 14.632812 8.777344 14.632812 8.847656 14.632812 8.917969 C 14.632812 8.9375 14.632812 8.957031 14.632812 8.980469 C 14.628906 9.097656 14.617188 9.195312 14.578125 9.304688 C 14.355469 9.472656 13.917969 9.40625 13.65625 9.386719 C 13.613281 9.382812 13.613281 9.382812 13.566406 9.378906 C 13.546875 9.378906 13.523438 9.375 13.5 9.375 C 13.5 8.816406 13.5 8.257812 13.5 7.699219 C 13.5 7.441406 13.5 7.183594 13.5 6.921875 C 13.496094 6.695312 13.496094 6.46875 13.496094 6.242188 C 13.496094 6.125 13.496094 6.003906 13.496094 5.882812 C 13.496094 5.195312 13.507812 4.507812 13.523438 3.820312 C 13.546875 3.820312 13.546875 3.820312 13.570312 3.820312 C 13.644531 3.816406 13.714844 3.816406 13.789062 3.816406 C 13.8125 3.8125 13.835938 3.8125 13.863281 3.8125 C 13.992188 3.808594 14.117188 3.808594 14.246094 3.804688 C 14.292969 3.804688 14.335938 3.804688 14.382812 3.800781 C 14.40625 3.800781 14.429688 3.800781 14.453125 3.800781 C 14.488281 3.800781 14.488281 3.800781 14.519531 3.800781 C 14.539062 3.796875 14.558594 3.796875 14.582031 3.796875 C 14.601562 3.796875 14.625 3.796875 14.648438 3.796875 Z M 14.648438 3.796875 "></path>
<path style="stroke: none; fill-rule: nonzero; fill: #0e1818; fill-opacity: 1" d="M 16.675781 13.03125 C 16.691406 13.03125 16.707031 13.03125 16.726562 13.03125 C 17.148438 13.03125 17.574219 13.03125 18 13.03125 C 18 13.355469 18 13.679688 18 14.015625 C 15.949219 14.015625 13.902344 14.015625 11.789062 14.015625 C 11.789062 13.699219 11.789062 13.382812 11.789062 13.054688 C 12.253906 13.050781 12.714844 13.046875 13.179688 13.042969 C 13.207031 13.042969 13.207031 13.042969 13.234375 13.042969 C 14.378906 13.035156 15.527344 13.027344 16.675781 13.03125 Z M 16.675781 13.03125 "></path>
<path style="stroke: none; fill-rule: nonzero; fill: #101918; fill-opacity: 1" d="M 15.328125 3.820312 C 15.652344 3.820312 15.976562 3.820312 16.3125 3.820312 C 16.3125 3.960938 16.3125 4.101562 16.3125 4.246094 C 16.316406 4.707031 16.316406 5.171875 16.316406 5.632812 C 16.320312 5.914062 16.320312 6.195312 16.320312 6.476562 C 16.320312 6.71875 16.320312 6.964844 16.324219 7.210938 C 16.324219 7.339844 16.324219 7.46875 16.324219 7.597656 C 16.324219 7.71875 16.324219 7.84375 16.324219 7.964844 C 16.324219 8.007812 16.324219 8.054688 16.324219 8.097656 C 16.324219 8.160156 16.324219 8.222656 16.328125 8.28125 C 16.328125 8.300781 16.328125 8.316406 16.328125 8.335938 C 16.328125 8.449219 16.351562 8.542969 16.390625 8.648438 C 16.429688 8.757812 16.421875 8.839844 16.378906 8.945312 C 16.292969 9.117188 16.191406 9.25 16.023438 9.351562 C 15.890625 9.386719 15.773438 9.40625 15.644531 9.347656 C 15.480469 9.246094 15.355469 9.121094 15.304688 8.929688 C 15.300781 8.851562 15.300781 8.851562 15.300781 8.773438 C 15.300781 8.75 15.300781 8.722656 15.300781 8.695312 C 15.304688 8.625 15.304688 8.625 15.316406 8.585938 C 15.332031 8.503906 15.332031 8.421875 15.332031 8.339844 C 15.332031 8.320312 15.332031 8.300781 15.332031 8.28125 C 15.332031 8.21875 15.332031 8.152344 15.332031 8.089844 C 15.332031 8.042969 15.332031 7.996094 15.332031 7.949219 C 15.332031 7.824219 15.332031 7.695312 15.332031 7.570312 C 15.332031 7.4375 15.332031 7.308594 15.332031 7.175781 C 15.332031 6.925781 15.328125 6.675781 15.328125 6.425781 C 15.328125 6.140625 15.328125 5.859375 15.328125 5.574219 C 15.328125 4.988281 15.328125 4.40625 15.328125 3.820312 Z M 15.328125 3.820312 "></path>
<path style="stroke: none; fill-rule: nonzero; fill: #ef4f09; fill-opacity: 1" d="M 10.03125 9.351562 C 10.386719 9.359375 10.742188 9.367188 11.109375 9.375 C 11.144531 9.445312 11.136719 9.523438 11.136719 9.601562 C 11.136719 9.621094 11.136719 9.640625 11.136719 9.660156 C 11.136719 9.722656 11.136719 9.785156 11.136719 9.847656 C 11.136719 9.894531 11.136719 9.9375 11.136719 9.984375 C 11.136719 10.109375 11.136719 10.230469 11.136719 10.355469 C 11.136719 10.484375 11.136719 10.613281 11.136719 10.738281 C 11.136719 10.984375 11.132812 11.226562 11.132812 11.472656 C 11.132812 11.75 11.132812 12.027344 11.132812 12.304688 C 11.132812 12.875 11.132812 13.445312 11.132812 14.015625 C 10.761719 14.015625 10.390625 14.015625 10.007812 14.015625 C 10.007812 13.804688 10.007812 13.59375 10.007812 13.382812 C 10.007812 13.367188 10.007812 13.351562 10.007812 13.332031 C 10.003906 12.476562 10.011719 11.617188 10.019531 10.761719 C 10.019531 10.742188 10.019531 10.726562 10.019531 10.707031 C 10.023438 10.257812 10.027344 9.804688 10.03125 9.351562 Z M 10.03125 9.351562 "></path>
<path style="stroke: none; fill-rule: nonzero; fill: #0a1313; fill-opacity: 1" d="M 7.53125 15.109375 C 7.644531 15.167969 7.734375 15.242188 7.828125 15.328125 C 7.851562 15.351562 7.851562 15.351562 7.875 15.371094 C 8.039062 15.542969 8.121094 15.746094 8.121094 15.984375 C 8.113281 16.320312 7.992188 16.570312 7.757812 16.804688 C 7.683594 16.863281 7.609375 16.90625 7.523438 16.945312 C 7.503906 16.953125 7.484375 16.964844 7.464844 16.972656 C 7.21875 17.078125 6.96875 17.070312 6.722656 16.976562 C 6.414062 16.835938 6.238281 16.652344 6.117188 16.335938 C 6.105469 16.308594 6.097656 16.285156 6.085938 16.257812 C 6.03125 15.96875 6.074219 15.722656 6.230469 15.472656 C 6.515625 15.074219 7.078125 14.925781 7.53125 15.109375 Z M 7.53125 15.109375 "></path>
<path style="stroke: none; fill-rule: nonzero; fill: #0a1515; fill-opacity: 1" d="M 8.90625 15.046875 C 8.972656 15.113281 9.007812 15.167969 9.054688 15.246094 C 9.160156 15.421875 9.28125 15.585938 9.398438 15.75 C 9.457031 15.824219 9.511719 15.902344 9.5625 15.984375 C 9.570312 15.96875 9.582031 15.953125 9.589844 15.941406 C 9.652344 15.84375 9.714844 15.746094 9.777344 15.648438 C 9.785156 15.632812 9.792969 15.621094 9.804688 15.609375 C 9.820312 15.582031 9.839844 15.554688 9.855469 15.527344 C 9.914062 15.441406 9.960938 15.355469 10 15.261719 C 10.039062 15.191406 10.097656 15.132812 10.148438 15.070312 C 10.304688 15.070312 10.457031 15.070312 10.617188 15.070312 C 10.617188 15.710938 10.617188 16.355469 10.617188 17.015625 C 10.46875 17.015625 10.324219 17.015625 10.171875 17.015625 C 10.164062 16.660156 10.15625 16.304688 10.148438 15.9375 C 10.09375 16.023438 10.039062 16.109375 9.984375 16.195312 C 9.941406 16.265625 9.894531 16.332031 9.851562 16.402344 C 9.839844 16.417969 9.828125 16.433594 9.820312 16.453125 C 9.644531 16.722656 9.644531 16.722656 9.5625 16.828125 C 9.480469 16.796875 9.449219 16.761719 9.40625 16.6875 C 9.390625 16.65625 9.390625 16.65625 9.371094 16.625 C 9.355469 16.597656 9.34375 16.574219 9.328125 16.546875 C 9.308594 16.511719 9.289062 16.476562 9.269531 16.445312 C 9.105469 16.152344 9.105469 16.152344 9.042969 16.019531 C 9.011719 15.9375 9.011719 15.9375 8.953125 15.914062 C 8.945312 16.277344 8.9375 16.640625 8.929688 17.015625 C 8.773438 17.007812 8.621094 17 8.460938 16.992188 C 8.460938 16.359375 8.460938 15.722656 8.460938 15.070312 C 8.609375 15.0625 8.753906 15.054688 8.90625 15.046875 Z M 8.90625 15.046875 "></path>
<path style="stroke: none; fill-rule: nonzero; fill: #071111; fill-opacity: 1" d="M 4.078125 15.070312 C 4.242188 15.078125 4.402344 15.085938 4.570312 15.09375 C 4.570312 15.324219 4.570312 15.558594 4.570312 15.796875 C 4.800781 15.796875 5.035156 15.796875 5.273438 15.796875 C 5.273438 15.558594 5.273438 15.316406 5.273438 15.070312 C 5.429688 15.070312 5.582031 15.070312 5.742188 15.070312 C 5.742188 15.710938 5.742188 16.355469 5.742188 17.015625 C 5.585938 17.015625 5.433594 17.015625 5.273438 17.015625 C 5.273438 16.761719 5.273438 16.503906 5.273438 16.242188 C 5.042969 16.242188 4.808594 16.242188 4.570312 16.242188 C 4.570312 16.496094 4.570312 16.753906 4.570312 17.015625 C 4.414062 17.015625 4.261719 17.015625 4.101562 17.015625 C 4.09375 16.375 4.085938 15.730469 4.078125 15.070312 Z M 4.078125 15.070312 "></path>
<path style="stroke: none; fill-rule: nonzero; fill: #091415; fill-opacity: 1" d="M 11.039062 15.070312 C 11.480469 15.070312 11.921875 15.070312 12.375 15.070312 C 12.375 15.226562 12.375 15.378906 12.375 15.539062 C 11.945312 15.527344 11.945312 15.527344 11.507812 15.515625 C 11.507812 15.617188 11.507812 15.714844 11.507812 15.820312 C 11.761719 15.820312 12.019531 15.820312 12.28125 15.820312 C 12.28125 15.96875 12.28125 16.113281 12.28125 16.265625 C 12.027344 16.265625 11.769531 16.265625 11.507812 16.265625 C 11.507812 16.359375 11.507812 16.453125 11.507812 16.546875 C 11.800781 16.546875 12.09375 16.546875 12.398438 16.546875 C 12.398438 16.703125 12.398438 16.855469 12.398438 17.015625 C 11.726562 17.027344 11.726562 17.027344 11.039062 17.039062 C 11.039062 16.390625 11.039062 15.738281 11.039062 15.070312 Z M 11.039062 15.070312 "></path>
<path style="stroke: none; fill-rule: nonzero; fill: #071011; fill-opacity: 1" d="M 17.789062 15.070312 C 18.230469 15.070312 18.671875 15.070312 19.125 15.070312 C 19.125 15.21875 19.125 15.363281 19.125 15.515625 C 18.832031 15.507812 18.539062 15.5 18.234375 15.492188 C 18.234375 15.601562 18.234375 15.707031 18.234375 15.820312 C 18.496094 15.820312 18.761719 15.820312 19.03125 15.820312 C 19.03125 15.960938 19.03125 16.097656 19.03125 16.242188 C 18.769531 16.242188 18.503906 16.242188 18.234375 16.242188 C 18.234375 16.34375 18.234375 16.441406 18.234375 16.546875 C 18.542969 16.546875 18.851562 16.546875 19.171875 16.546875 C 19.164062 16.710938 19.15625 16.871094 19.148438 17.039062 C 18.699219 17.039062 18.25 17.039062 17.789062 17.039062 C 17.789062 16.390625 17.789062 15.738281 17.789062 15.070312 Z M 17.789062 15.070312 "></path>
<path style="stroke: none; fill-rule: nonzero; fill: #0a1312; fill-opacity: 1" d="M 15.679688 15.070312 C 16.175781 15.003906 16.175781 15.003906 16.320312 15.109375 C 16.40625 15.207031 16.464844 15.320312 16.519531 15.441406 C 16.558594 15.515625 16.609375 15.570312 16.664062 15.632812 C 16.695312 15.578125 16.730469 15.523438 16.761719 15.46875 C 16.769531 15.457031 16.78125 15.441406 16.789062 15.425781 C 16.859375 15.308594 16.925781 15.191406 16.992188 15.070312 C 17.179688 15.070312 17.363281 15.070312 17.554688 15.070312 C 17.449219 15.253906 17.449219 15.253906 17.394531 15.335938 C 17.382812 15.351562 17.371094 15.367188 17.359375 15.386719 C 17.34375 15.414062 17.34375 15.414062 17.324219 15.441406 C 17.3125 15.460938 17.300781 15.476562 17.285156 15.496094 C 17.046875 15.855469 17.046875 15.855469 16.976562 15.9375 C 16.941406 15.980469 16.941406 15.980469 16.949219 16.027344 C 16.972656 16.085938 17 16.132812 17.035156 16.183594 C 17.046875 16.203125 17.0625 16.226562 17.074219 16.246094 C 17.089844 16.265625 17.105469 16.289062 17.121094 16.3125 C 17.132812 16.332031 17.148438 16.355469 17.164062 16.378906 C 17.265625 16.527344 17.371094 16.671875 17.480469 16.8125 C 17.535156 16.878906 17.578125 16.945312 17.625 17.015625 C 17.105469 17.058594 17.105469 17.058594 16.964844 16.96875 C 16.917969 16.902344 16.886719 16.832031 16.851562 16.757812 C 16.8125 16.691406 16.765625 16.628906 16.722656 16.566406 C 16.703125 16.535156 16.683594 16.503906 16.660156 16.472656 C 16.648438 16.453125 16.632812 16.429688 16.617188 16.40625 C 16.464844 16.59375 16.328125 16.800781 16.21875 17.015625 C 15.929688 17.027344 15.929688 17.027344 15.632812 17.039062 C 15.710938 16.894531 15.789062 16.769531 15.886719 16.644531 C 15.910156 16.609375 15.9375 16.578125 15.960938 16.546875 C 15.972656 16.53125 15.984375 16.515625 15.996094 16.5 C 16.058594 16.417969 16.117188 16.332031 16.179688 16.25 C 16.214844 16.203125 16.25 16.160156 16.289062 16.113281 C 16.34375 16.0625 16.34375 16.0625 16.332031 16.007812 C 16.300781 15.929688 16.246094 15.871094 16.191406 15.808594 C 16.097656 15.6875 16.011719 15.566406 15.929688 15.4375 C 15.875 15.347656 15.808594 15.269531 15.742188 15.191406 C 15.703125 15.140625 15.703125 15.140625 15.679688 15.070312 Z M 15.679688 15.070312 "></path>
<path style="stroke: none; fill-rule: nonzero; fill: #081211; fill-opacity: 1" d="M 20.835938 15.28125 C 20.800781 15.359375 20.757812 15.414062 20.699219 15.476562 C 20.660156 15.53125 20.628906 15.59375 20.601562 15.65625 C 20.503906 15.625 20.414062 15.589844 20.324219 15.546875 C 20.203125 15.496094 20.121094 15.472656 19.992188 15.492188 C 19.933594 15.515625 19.933594 15.515625 19.898438 15.5625 C 19.890625 15.625 19.890625 15.625 19.898438 15.679688 C 20.066406 15.769531 20.234375 15.824219 20.414062 15.875 C 20.59375 15.929688 20.726562 15.988281 20.835938 16.148438 C 20.902344 16.292969 20.902344 16.433594 20.855469 16.582031 C 20.722656 16.828125 20.550781 16.972656 20.277344 17.050781 C 19.988281 17.113281 19.699219 16.984375 19.457031 16.835938 C 19.40625 16.800781 19.359375 16.769531 19.3125 16.734375 C 19.347656 16.648438 19.402344 16.589844 19.464844 16.523438 C 19.519531 16.460938 19.570312 16.40625 19.617188 16.335938 C 19.625 16.359375 19.632812 16.382812 19.640625 16.40625 C 19.691406 16.429688 19.691406 16.429688 19.757812 16.453125 C 19.804688 16.476562 19.855469 16.5 19.902344 16.527344 C 19.976562 16.5625 20.039062 16.574219 20.121094 16.574219 C 20.136719 16.574219 20.15625 16.574219 20.171875 16.574219 C 20.226562 16.570312 20.269531 16.5625 20.320312 16.546875 C 20.328125 16.484375 20.335938 16.421875 20.34375 16.359375 C 20.234375 16.296875 20.132812 16.269531 20.007812 16.246094 C 19.625 16.160156 19.625 16.160156 19.5 15.996094 C 19.402344 15.835938 19.386719 15.679688 19.40625 15.492188 C 19.453125 15.308594 19.601562 15.191406 19.753906 15.089844 C 20.105469 14.921875 20.53125 15.101562 20.835938 15.28125 Z M 20.835938 15.28125 "></path>
<path style="stroke: none; fill-rule: nonzero; fill: #091415; fill-opacity: 1" d="M 13.335938 15.070312 C 13.769531 15.070312 14.203125 15.070312 14.648438 15.070312 C 14.648438 15.21875 14.648438 15.363281 14.648438 15.515625 C 14.371094 15.515625 14.089844 15.515625 13.804688 15.515625 C 13.804688 15.632812 13.804688 15.746094 13.804688 15.867188 C 14.050781 15.867188 14.300781 15.867188 14.554688 15.867188 C 14.554688 16 14.554688 16.128906 14.554688 16.265625 C 14.308594 16.265625 14.058594 16.265625 13.804688 16.265625 C 13.804688 16.511719 13.804688 16.761719 13.804688 17.015625 C 13.648438 17.015625 13.496094 17.015625 13.335938 17.015625 C 13.335938 16.375 13.335938 15.730469 13.335938 15.070312 Z M 13.335938 15.070312 "></path>
<path style="stroke: none; fill-rule: nonzero; fill: #0d1717; fill-opacity: 1" d="M 14.90625 15.070312 C 15.070312 15.070312 15.230469 15.070312 15.398438 15.070312 C 15.398438 15.726562 15.398438 16.386719 15.398438 17.0625 C 15.363281 17.050781 15.363281 17.050781 15.328125 17.039062 C 15.1875 17.039062 15.050781 17.039062 14.90625 17.039062 C 14.90625 16.390625 14.90625 15.738281 14.90625 15.070312 Z M 14.90625 15.070312 "></path>
<path style="stroke: none; fill-rule: nonzero; fill: #eaeeea; fill-opacity: 1" d="M 7.34375 15.539062 C 7.480469 15.617188 7.550781 15.71875 7.625 15.851562 C 7.667969 16.03125 7.648438 16.171875 7.558594 16.328125 C 7.476562 16.453125 7.367188 16.542969 7.21875 16.570312 C 7.058594 16.585938 6.925781 16.589844 6.789062 16.488281 C 6.65625 16.371094 6.574219 16.265625 6.554688 16.082031 C 6.550781 15.929688 6.5625 15.804688 6.65625 15.679688 C 6.847656 15.488281 7.089844 15.425781 7.34375 15.539062 Z M 7.34375 15.539062 "></path>
<path style="stroke: none; fill-rule: nonzero; fill: #0b1314; fill-opacity: 1" d="M 10.898438 6.84375 C 11.023438 6.949219 11.117188 7.082031 11.140625 7.246094 C 11.148438 7.414062 11.085938 7.542969 10.996094 7.683594 C 10.890625 7.789062 10.742188 7.871094 10.589844 7.875 C 10.410156 7.867188 10.285156 7.785156 10.164062 7.652344 C 10.058594 7.527344 10.042969 7.402344 10.042969 7.246094 C 10.066406 7.078125 10.160156 6.957031 10.289062 6.855469 C 10.496094 6.71875 10.683594 6.71875 10.898438 6.84375 Z M 10.898438 6.84375 "></path>
<path style="stroke: none; fill-rule: nonzero; fill: #0c1111; fill-opacity: 1" d="M 17.390625 18.140625 C 18.496094 18.140625 19.601562 18.140625 20.742188 18.140625 C 20.742188 18.210938 20.742188 18.28125 20.742188 18.351562 C 19.082031 18.339844 19.082031 18.339844 17.390625 18.328125 C 17.390625 18.265625 17.390625 18.203125 17.390625 18.140625 Z M 17.390625 18.140625 "></path>
<path style="stroke: none; fill-rule: nonzero; fill: #050708; fill-opacity: 1" d="M 4.125 18.164062 C 5.222656 18.164062 6.320312 18.164062 7.453125 18.164062 C 7.453125 18.21875 7.453125 18.273438 7.453125 18.328125 C 6.355469 18.328125 5.257812 18.328125 4.125 18.328125 C 4.125 18.273438 4.125 18.21875 4.125 18.164062 Z M 4.125 18.164062 "></path>
<path style="stroke: none; fill-rule: nonzero; fill: #dd7742; fill-opacity: 1" d="M 10.03125 9.351562 C 10.386719 9.359375 10.742188 9.367188 11.109375 9.375 C 11.144531 9.445312 11.136719 9.523438 11.136719 9.601562 C 11.136719 9.621094 11.136719 9.640625 11.136719 9.660156 C 11.136719 9.722656 11.136719 9.785156 11.136719 9.847656 C 11.136719 9.894531 11.136719 9.9375 11.136719 9.984375 C 11.136719 10.109375 11.136719 10.230469 11.136719 10.355469 C 11.136719 10.484375 11.136719 10.613281 11.136719 10.738281 C 11.136719 10.984375 11.132812 11.226562 11.132812 11.472656 C 11.132812 11.75 11.132812 12.027344 11.132812 12.304688 C 11.132812 12.875 11.132812 13.445312 11.132812 14.015625 C 10.761719 14.015625 10.390625 14.015625 10.007812 14.015625 C 10.007812 13.472656 10.007812 12.933594 10.007812 12.375 C 10.015625 12.375 10.023438 12.375 10.03125 12.375 C 10.03125 12.910156 10.03125 13.441406 10.03125 13.992188 C 10.378906 13.992188 10.726562 13.992188 11.085938 13.992188 C 11.078125 12.507812 11.070312 11.023438 11.0625 9.492188 C 10.738281 9.398438 10.390625 9.417969 10.054688 9.398438 C 10.054688 10.257812 10.054688 11.117188 10.054688 12 C 10.046875 12 10.039062 12 10.03125 12 C 10.03125 11.125 10.03125 10.253906 10.03125 9.351562 Z M 10.03125 9.351562 "></path>
<path style="stroke: none; fill-rule: nonzero; fill: #06090b; fill-opacity: 1" d="M 15.46875 17.835938 C 15.53125 17.824219 15.53125 17.824219 15.609375 17.835938 C 15.644531 17.878906 15.671875 17.921875 15.699219 17.972656 C 15.726562 18.023438 15.761719 18.070312 15.796875 18.117188 C 15.824219 18.089844 15.851562 18.058594 15.875 18.03125 C 15.890625 18.011719 15.90625 17.996094 15.921875 17.980469 C 15.957031 17.933594 15.984375 17.890625 16.007812 17.835938 C 16.0625 17.835938 16.117188 17.835938 16.171875 17.835938 C 16.164062 18.058594 16.15625 18.285156 16.148438 18.515625 C 16.101562 18.515625 16.054688 18.515625 16.007812 18.515625 C 16 18.398438 15.992188 18.285156 15.984375 18.164062 C 15.964844 18.199219 15.941406 18.234375 15.921875 18.269531 C 15.855469 18.371094 15.855469 18.371094 15.75 18.398438 C 15.710938 18.328125 15.671875 18.257812 15.632812 18.1875 C 15.625 18.296875 15.617188 18.402344 15.609375 18.515625 C 15.554688 18.515625 15.5 18.515625 15.445312 18.515625 C 15.445312 18.433594 15.445312 18.351562 15.445312 18.269531 C 15.445312 18.246094 15.445312 18.222656 15.441406 18.199219 C 15.441406 18.074219 15.445312 17.957031 15.46875 17.835938 Z M 15.46875 17.835938 "></path>
<path style="stroke: none; fill-rule: nonzero; fill: #080a0e; fill-opacity: 1" d="M 12.328125 17.835938 C 12.367188 17.835938 12.40625 17.835938 12.445312 17.835938 C 12.46875 17.859375 12.46875 17.859375 12.472656 17.921875 C 12.472656 17.949219 12.472656 17.976562 12.472656 18.003906 C 12.472656 18.035156 12.472656 18.0625 12.472656 18.09375 C 12.46875 18.125 12.46875 18.15625 12.46875 18.1875 C 12.46875 18.21875 12.46875 18.253906 12.46875 18.285156 C 12.46875 18.359375 12.46875 18.4375 12.46875 18.515625 C 12.257812 18.480469 12.148438 18.28125 12.023438 18.117188 C 12.015625 18.257812 12.007812 18.394531 12 18.539062 C 11.953125 18.53125 11.90625 18.523438 11.859375 18.515625 C 11.859375 18.300781 11.859375 18.082031 11.859375 17.859375 C 12 17.859375 12 17.859375 12.050781 17.894531 C 12.066406 17.914062 12.078125 17.929688 12.09375 17.945312 C 12.109375 17.960938 12.125 17.980469 12.144531 17.996094 C 12.15625 18.015625 12.171875 18.03125 12.1875 18.046875 C 12.210938 18.070312 12.234375 18.09375 12.257812 18.117188 C 12.273438 18.132812 12.289062 18.148438 12.304688 18.164062 C 12.3125 18.054688 12.320312 17.949219 12.328125 17.835938 Z M 12.328125 17.835938 "></path>
<path style="stroke: none; fill-rule: nonzero; fill: #090c0d; fill-opacity: 1" d="M 10.335938 17.835938 C 10.75 17.835938 10.75 17.835938 10.863281 17.933594 C 10.898438 18 10.898438 18 10.902344 18.082031 C 10.875 18.164062 10.855469 18.195312 10.78125 18.238281 C 10.683594 18.277344 10.582031 18.304688 10.476562 18.328125 C 10.476562 18.390625 10.476562 18.453125 10.476562 18.515625 C 10.429688 18.523438 10.382812 18.53125 10.335938 18.539062 C 10.335938 18.308594 10.335938 18.074219 10.335938 17.835938 Z M 10.335938 17.835938 "></path>
<path style="stroke: none; fill-rule: nonzero; fill: #0b0f10; fill-opacity: 1" d="M 16.453125 17.835938 C 16.625 17.835938 16.792969 17.835938 16.96875 17.835938 C 16.96875 17.882812 16.96875 17.929688 16.96875 17.976562 C 16.851562 17.976562 16.738281 17.976562 16.617188 17.976562 C 16.617188 18.023438 16.617188 18.070312 16.617188 18.117188 C 16.710938 18.117188 16.804688 18.117188 16.898438 18.117188 C 16.898438 18.15625 16.898438 18.195312 16.898438 18.234375 C 16.875 18.257812 16.875 18.257812 16.816406 18.261719 C 16.792969 18.261719 16.769531 18.257812 16.746094 18.257812 C 16.722656 18.257812 16.695312 18.257812 16.671875 18.257812 C 16.644531 18.257812 16.644531 18.257812 16.617188 18.257812 C 16.625 18.296875 16.632812 18.335938 16.640625 18.375 C 16.671875 18.375 16.671875 18.375 16.707031 18.375 C 16.734375 18.375 16.761719 18.375 16.792969 18.375 C 16.820312 18.375 16.847656 18.371094 16.875 18.371094 C 16.945312 18.375 16.945312 18.375 16.96875 18.398438 C 16.96875 18.445312 16.96875 18.492188 16.96875 18.539062 C 16.886719 18.539062 16.804688 18.539062 16.722656 18.539062 C 16.6875 18.539062 16.6875 18.539062 16.652344 18.542969 C 16.632812 18.542969 16.609375 18.542969 16.585938 18.542969 C 16.554688 18.542969 16.554688 18.542969 16.523438 18.542969 C 16.476562 18.539062 16.476562 18.539062 16.453125 18.515625 C 16.449219 18.464844 16.449219 18.414062 16.449219 18.363281 C 16.449219 18.335938 16.449219 18.304688 16.449219 18.273438 C 16.453125 18.238281 16.453125 18.207031 16.453125 18.175781 C 16.453125 18.140625 16.453125 18.109375 16.453125 18.078125 C 16.453125 17.996094 16.453125 17.917969 16.453125 17.835938 Z M 16.453125 17.835938 "></path>
<path style="stroke: none; fill-rule: nonzero; fill: #0a0d0e; fill-opacity: 1" d="M 9.984375 17.871094 C 10.019531 17.886719 10.019531 17.886719 10.054688 17.90625 C 10.046875 17.929688 10.039062 17.953125 10.03125 17.976562 C 9.9375 18.007812 9.847656 18.007812 9.746094 18.011719 C 9.671875 18.023438 9.640625 18.039062 9.585938 18.09375 C 9.570312 18.1875 9.578125 18.242188 9.621094 18.328125 C 9.683594 18.378906 9.699219 18.382812 9.773438 18.386719 C 9.867188 18.382812 9.867188 18.382812 9.914062 18.328125 C 9.921875 18.3125 9.929688 18.296875 9.9375 18.28125 C 9.890625 18.28125 9.84375 18.28125 9.796875 18.28125 C 9.789062 18.234375 9.78125 18.1875 9.773438 18.140625 C 9.808594 18.140625 9.847656 18.140625 9.882812 18.140625 C 9.914062 18.140625 9.914062 18.140625 9.949219 18.136719 C 10.003906 18.140625 10.046875 18.148438 10.101562 18.164062 C 10.09375 18.375 10.09375 18.375 10.035156 18.46875 C 9.945312 18.550781 9.851562 18.546875 9.738281 18.546875 C 9.617188 18.53125 9.546875 18.460938 9.472656 18.367188 C 9.425781 18.296875 9.402344 18.230469 9.40625 18.144531 C 9.441406 18.027344 9.53125 17.917969 9.632812 17.855469 C 9.75 17.808594 9.871094 17.824219 9.984375 17.871094 Z M 9.984375 17.871094 "></path>
<path style="stroke: none; fill-rule: nonzero; fill: #080a0a; fill-opacity: 1" d="M 8.835938 17.835938 C 8.941406 17.847656 8.941406 17.847656 8.984375 17.894531 C 9.097656 18.089844 9.199219 18.289062 9.210938 18.515625 C 9.144531 18.523438 9.144531 18.523438 9.070312 18.515625 C 9.0625 18.496094 9.050781 18.476562 9.042969 18.457031 C 9.027344 18.4375 9.015625 18.417969 9 18.398438 C 8.914062 18.386719 8.828125 18.390625 8.742188 18.398438 C 8.734375 18.414062 8.730469 18.429688 8.722656 18.445312 C 8.6875 18.507812 8.648438 18.515625 8.578125 18.539062 C 8.546875 18.285156 8.703125 18.039062 8.835938 17.835938 Z M 8.835938 17.835938 "></path>
<path style="stroke: none; fill-rule: nonzero; fill: #030708; fill-opacity: 1" d="M 13.851562 17.835938 C 13.898438 17.835938 13.945312 17.835938 13.992188 17.835938 C 13.992188 17.929688 13.992188 18.023438 13.992188 18.117188 C 14.078125 18.117188 14.164062 18.117188 14.25 18.117188 C 14.25 18.023438 14.25 17.929688 14.25 17.835938 C 14.304688 17.835938 14.359375 17.835938 14.414062 17.835938 C 14.414062 18.066406 14.414062 18.300781 14.414062 18.539062 C 14.367188 18.53125 14.320312 18.523438 14.273438 18.515625 C 14.242188 18.421875 14.25 18.332031 14.25 18.234375 C 14.132812 18.246094 14.132812 18.246094 14.015625 18.257812 C 14.007812 18.351562 14 18.445312 13.992188 18.539062 C 13.945312 18.53125 13.898438 18.523438 13.851562 18.515625 C 13.851562 18.292969 13.851562 18.066406 13.851562 17.835938 Z M 13.851562 17.835938 "></path>
<path style="stroke: none; fill-rule: nonzero; fill: #060809; fill-opacity: 1" d="M 11.304688 17.851562 C 11.367188 17.859375 11.367188 17.859375 11.40625 17.898438 C 11.53125 18.097656 11.609375 18.277344 11.625 18.515625 C 11.578125 18.515625 11.53125 18.515625 11.484375 18.515625 C 11.46875 18.476562 11.453125 18.4375 11.4375 18.398438 C 11.351562 18.398438 11.265625 18.398438 11.179688 18.398438 C 11.164062 18.445312 11.148438 18.492188 11.132812 18.539062 C 11.078125 18.539062 11.023438 18.539062 10.96875 18.539062 C 11.007812 18.390625 11.058594 18.261719 11.128906 18.125 C 11.15625 18.074219 11.175781 18.019531 11.195312 17.964844 C 11.234375 17.863281 11.234375 17.863281 11.304688 17.851562 Z M 11.304688 17.851562 "></path>
<path style="stroke: none; fill-rule: nonzero; fill: #e38256; fill-opacity: 1" d="M 13.5 4.945312 C 13.507812 4.945312 13.515625 4.945312 13.523438 4.945312 C 13.53125 6.375 13.539062 7.808594 13.546875 9.28125 C 13.625 9.28125 13.703125 9.28125 13.78125 9.28125 C 13.84375 9.289062 13.90625 9.296875 13.96875 9.304688 C 14.035156 9.308594 14.101562 9.308594 14.167969 9.308594 C 14.183594 9.308594 14.199219 9.308594 14.21875 9.308594 C 14.332031 9.308594 14.441406 9.296875 14.554688 9.28125 C 14.578125 9.144531 14.582031 9.011719 14.582031 8.871094 C 14.582031 8.847656 14.582031 8.824219 14.582031 8.800781 C 14.585938 8.722656 14.585938 8.640625 14.585938 8.5625 C 14.585938 8.507812 14.585938 8.453125 14.585938 8.398438 C 14.589844 8.253906 14.589844 8.109375 14.589844 7.964844 C 14.589844 7.816406 14.59375 7.671875 14.59375 7.523438 C 14.597656 7.234375 14.597656 6.945312 14.601562 6.65625 C 14.609375 6.65625 14.617188 6.65625 14.625 6.65625 C 14.625 6.976562 14.625 7.296875 14.628906 7.621094 C 14.628906 7.769531 14.628906 7.917969 14.628906 8.066406 C 14.628906 8.210938 14.628906 8.355469 14.628906 8.5 C 14.628906 8.554688 14.628906 8.609375 14.628906 8.664062 C 14.628906 8.738281 14.628906 8.816406 14.628906 8.894531 C 14.628906 8.917969 14.628906 8.9375 14.628906 8.960938 C 14.628906 9.085938 14.621094 9.1875 14.578125 9.304688 C 14.328125 9.492188 13.769531 9.394531 13.5 9.375 C 13.5 7.914062 13.5 6.453125 13.5 4.945312 Z M 13.5 4.945312 "></path>
<path style="stroke: none; fill-rule: nonzero; fill: #070a0b; fill-opacity: 1" d="M 14.71875 17.835938 C 14.875 17.835938 15.027344 17.835938 15.1875 17.835938 C 15.1875 17.875 15.1875 17.914062 15.1875 17.953125 C 15.164062 17.976562 15.164062 17.976562 15.09375 17.980469 C 15.054688 17.976562 15.054688 17.976562 15.011719 17.976562 C 14.96875 17.976562 14.96875 17.976562 14.925781 17.976562 C 14.902344 17.976562 14.882812 17.976562 14.859375 17.976562 C 14.859375 18.023438 14.859375 18.070312 14.859375 18.117188 C 14.960938 18.117188 15.058594 18.117188 15.164062 18.117188 C 15.164062 18.164062 15.164062 18.210938 15.164062 18.257812 C 15.0625 18.257812 14.964844 18.257812 14.859375 18.257812 C 14.859375 18.304688 14.859375 18.351562 14.859375 18.398438 C 14.976562 18.398438 15.089844 18.398438 15.210938 18.398438 C 15.210938 18.445312 15.210938 18.492188 15.210938 18.539062 C 15.046875 18.53125 14.886719 18.523438 14.71875 18.515625 C 14.71875 18.292969 14.71875 18.066406 14.71875 17.835938 Z M 14.71875 17.835938 "></path>
<path style="stroke: none; fill-rule: nonzero; fill: #d66127; fill-opacity: 1" d="M 14.648438 3.796875 C 14.640625 4.742188 14.632812 5.683594 14.625 6.65625 C 14.617188 6.65625 14.609375 6.65625 14.601562 6.65625 C 14.601562 5.734375 14.601562 4.816406 14.601562 3.867188 C 14.261719 3.867188 13.921875 3.867188 13.570312 3.867188 C 13.578125 3.921875 13.585938 3.976562 13.59375 4.03125 C 13.59375 4.0625 13.597656 4.097656 13.597656 4.128906 C 13.597656 4.148438 13.597656 4.164062 13.597656 4.183594 C 13.597656 4.199219 13.597656 4.21875 13.597656 4.238281 C 13.597656 4.257812 13.597656 4.277344 13.597656 4.296875 C 13.597656 4.335938 13.597656 4.375 13.597656 4.417969 C 13.597656 4.476562 13.597656 4.539062 13.597656 4.601562 C 13.597656 4.640625 13.597656 4.679688 13.597656 4.71875 C 13.597656 4.738281 13.597656 4.753906 13.597656 4.773438 C 13.597656 4.792969 13.597656 4.808594 13.597656 4.828125 C 13.597656 4.839844 13.597656 4.855469 13.597656 4.871094 C 13.59375 4.921875 13.59375 4.921875 13.582031 4.988281 C 13.570312 5.058594 13.566406 5.121094 13.566406 5.191406 C 13.566406 5.21875 13.566406 5.242188 13.5625 5.269531 C 13.5625 5.292969 13.5625 5.320312 13.5625 5.347656 C 13.5625 5.375 13.5625 5.402344 13.5625 5.429688 C 13.558594 5.519531 13.558594 5.605469 13.558594 5.691406 C 13.554688 5.75 13.554688 5.8125 13.554688 5.871094 C 13.550781 6.015625 13.550781 6.160156 13.546875 6.304688 C 13.539062 6.304688 13.53125 6.304688 13.523438 6.304688 C 13.523438 5.484375 13.523438 4.664062 13.523438 3.820312 C 14.625 3.796875 14.625 3.796875 14.648438 3.796875 Z M 14.648438 3.796875 "></path>
<path style="stroke: none; fill-rule: nonzero; fill: #070a0b; fill-opacity: 1" d="M 8.273438 17.835938 C 8.339844 17.859375 8.339844 17.859375 8.390625 17.882812 C 8.375 17.921875 8.359375 17.960938 8.34375 18 C 8.25 18 8.15625 18 8.0625 18 C 8.132812 18.070312 8.195312 18.109375 8.277344 18.15625 C 8.320312 18.1875 8.320312 18.1875 8.367188 18.257812 C 8.367188 18.363281 8.355469 18.410156 8.285156 18.492188 C 8.21875 18.539062 8.171875 18.542969 8.09375 18.539062 C 8.019531 18.527344 7.988281 18.511719 7.921875 18.46875 C 7.921875 18.429688 7.921875 18.390625 7.921875 18.351562 C 8.007812 18.359375 8.09375 18.367188 8.179688 18.375 C 8.179688 18.34375 8.179688 18.3125 8.179688 18.28125 C 8.164062 18.273438 8.152344 18.265625 8.136719 18.257812 C 8.117188 18.25 8.097656 18.238281 8.078125 18.226562 C 8.058594 18.21875 8.042969 18.207031 8.023438 18.199219 C 7.964844 18.160156 7.933594 18.128906 7.898438 18.070312 C 7.886719 18 7.886719 18 7.898438 17.929688 C 7.992188 17.804688 8.132812 17.820312 8.273438 17.835938 Z M 8.273438 17.835938 "></path>
<path style="stroke: none; fill-rule: nonzero; fill: #fdddc8; fill-opacity: 1" d="M 13.546875 3.773438 C 13.566406 3.773438 13.585938 3.773438 13.605469 3.773438 C 13.628906 3.773438 13.652344 3.773438 13.675781 3.773438 C 13.699219 3.773438 13.722656 3.777344 13.75 3.777344 C 13.785156 3.777344 13.785156 3.777344 13.824219 3.777344 C 13.902344 3.78125 13.984375 3.78125 14.0625 3.785156 C 14.117188 3.785156 14.171875 3.785156 14.226562 3.789062 C 14.359375 3.789062 14.492188 3.792969 14.625 3.796875 C 14.625 3.804688 14.625 3.8125 14.625 3.820312 C 14.261719 3.820312 13.898438 3.820312 13.523438 3.820312 C 13.523438 3.984375 13.523438 4.148438 13.523438 4.316406 C 13.523438 4.859375 13.523438 5.40625 13.519531 5.949219 C 13.519531 6.070312 13.515625 6.191406 13.515625 6.3125 C 13.515625 6.535156 13.515625 6.761719 13.511719 6.988281 C 13.511719 7.246094 13.511719 7.503906 13.507812 7.761719 C 13.507812 8.292969 13.503906 8.820312 13.5 9.351562 C 13.492188 9.351562 13.484375 9.351562 13.476562 9.351562 C 13.472656 8.898438 13.46875 8.441406 13.464844 7.988281 C 13.464844 7.777344 13.464844 7.566406 13.460938 7.355469 C 13.453125 6.453125 13.449219 5.550781 13.460938 4.648438 C 13.460938 4.589844 13.464844 4.527344 13.464844 4.464844 C 13.464844 4.371094 13.464844 4.277344 13.46875 4.183594 C 13.46875 4.148438 13.46875 4.113281 13.46875 4.078125 C 13.46875 4.03125 13.472656 3.984375 13.472656 3.9375 C 13.472656 3.910156 13.472656 3.882812 13.472656 3.855469 C 13.476562 3.773438 13.476562 3.773438 13.546875 3.773438 Z M 13.546875 3.773438 "></path>
<path style="stroke: none; fill-rule: nonzero; fill: #f9dbbf; fill-opacity: 1" d="M 9.984375 9.84375 C 10.046875 9.9375 10.039062 10.039062 10.035156 10.144531 C 10.035156 10.175781 10.035156 10.175781 10.035156 10.210938 C 10.039062 10.28125 10.035156 10.351562 10.035156 10.421875 C 10.035156 10.472656 10.035156 10.523438 10.035156 10.574219 C 10.035156 10.707031 10.035156 10.839844 10.035156 10.976562 C 10.035156 11.058594 10.035156 11.140625 10.035156 11.226562 C 10.035156 12.15625 10.027344 13.085938 10.007812 14.015625 C 10 14.015625 9.992188 14.015625 9.984375 14.015625 C 9.984375 14 9.984375 13.980469 9.984375 13.964844 C 9.980469 13.546875 9.980469 13.125 9.976562 12.707031 C 9.976562 12.507812 9.972656 12.304688 9.972656 12.101562 C 9.972656 11.925781 9.96875 11.75 9.96875 11.574219 C 9.96875 11.480469 9.96875 11.386719 9.96875 11.292969 C 9.96875 11.203125 9.964844 11.117188 9.964844 11.027344 C 9.964844 10.996094 9.964844 10.964844 9.964844 10.933594 C 9.964844 10.886719 9.964844 10.84375 9.964844 10.800781 C 9.964844 10.773438 9.964844 10.75 9.964844 10.726562 C 9.964844 10.660156 9.964844 10.660156 9.9375 10.59375 C 9.9375 10.539062 9.9375 10.484375 9.941406 10.429688 C 9.941406 10.414062 9.941406 10.398438 9.941406 10.378906 C 9.941406 10.347656 9.941406 10.3125 9.945312 10.28125 C 9.945312 10.226562 9.949219 10.175781 9.949219 10.125 C 9.949219 10.089844 9.953125 10.058594 9.953125 10.027344 C 9.953125 9.996094 9.953125 9.964844 9.957031 9.933594 C 9.960938 9.867188 9.960938 9.867188 9.984375 9.84375 Z M 9.984375 9.84375 "></path>
<path style="stroke: none; fill-rule: nonzero; fill: #fee7cf; fill-opacity: 1" d="M 14.648438 3.796875 C 14.65625 3.796875 14.664062 3.796875 14.671875 3.796875 C 14.675781 3.898438 14.679688 4 14.683594 4.101562 C 14.6875 4.132812 14.6875 4.160156 14.6875 4.191406 C 14.691406 4.21875 14.691406 4.246094 14.691406 4.273438 C 14.695312 4.3125 14.695312 4.3125 14.695312 4.351562 C 14.695312 4.429688 14.695312 4.429688 14.683594 4.503906 C 14.671875 4.601562 14.667969 4.691406 14.667969 4.789062 C 14.667969 4.808594 14.667969 4.828125 14.667969 4.847656 C 14.667969 4.910156 14.667969 4.972656 14.667969 5.039062 C 14.667969 5.082031 14.667969 5.128906 14.667969 5.175781 C 14.667969 5.273438 14.667969 5.371094 14.667969 5.46875 C 14.667969 5.625 14.667969 5.777344 14.664062 5.933594 C 14.664062 6.375 14.664062 6.816406 14.664062 7.253906 C 14.660156 7.5 14.660156 7.742188 14.660156 7.984375 C 14.660156 8.113281 14.660156 8.242188 14.660156 8.371094 C 14.660156 8.492188 14.660156 8.613281 14.660156 8.734375 C 14.660156 8.78125 14.660156 8.824219 14.660156 8.867188 C 14.660156 8.929688 14.65625 8.992188 14.65625 9.050781 C 14.65625 9.070312 14.65625 9.085938 14.65625 9.105469 C 14.65625 9.222656 14.65625 9.222656 14.613281 9.28125 C 14.59375 9.292969 14.59375 9.292969 14.578125 9.304688 C 14.582031 9.28125 14.585938 9.257812 14.589844 9.234375 C 14.605469 9.136719 14.605469 9.039062 14.605469 8.9375 C 14.605469 8.917969 14.605469 8.898438 14.605469 8.875 C 14.605469 8.808594 14.605469 8.742188 14.605469 8.675781 C 14.605469 8.628906 14.605469 8.582031 14.605469 8.535156 C 14.605469 8.429688 14.605469 8.328125 14.609375 8.226562 C 14.609375 8.0625 14.609375 7.898438 14.609375 7.734375 C 14.609375 7.390625 14.613281 7.042969 14.613281 6.695312 C 14.613281 6.324219 14.617188 5.949219 14.617188 5.574219 C 14.617188 5.414062 14.617188 5.253906 14.617188 5.089844 C 14.621094 4.988281 14.621094 4.886719 14.621094 4.789062 C 14.621094 4.742188 14.621094 4.695312 14.621094 4.648438 C 14.621094 4.363281 14.628906 4.082031 14.648438 3.796875 Z M 14.648438 3.796875 "></path>
<path style="stroke: none; fill-rule: nonzero; fill: #171e28; fill-opacity: 1" d="M 15.46875 17.835938 C 15.53125 17.824219 15.53125 17.824219 15.609375 17.835938 C 15.6875 17.921875 15.734375 18.03125 15.773438 18.140625 C 15.734375 18.171875 15.695312 18.203125 15.65625 18.234375 C 15.648438 18.21875 15.640625 18.203125 15.632812 18.1875 C 15.625 18.296875 15.617188 18.402344 15.609375 18.515625 C 15.554688 18.515625 15.5 18.515625 15.445312 18.515625 C 15.445312 18.433594 15.445312 18.351562 15.445312 18.269531 C 15.445312 18.246094 15.445312 18.222656 15.441406 18.199219 C 15.441406 18.074219 15.445312 17.957031 15.46875 17.835938 Z M 15.46875 17.835938 "></path>
<path style="stroke: none; fill-rule: nonzero; fill: #0a1716; fill-opacity: 1" d="M 12.679688 17.835938 C 12.808594 17.847656 12.808594 17.847656 12.859375 17.898438 C 12.890625 17.957031 12.917969 18.011719 12.9375 18.070312 C 12.992188 18.054688 13.023438 18.035156 13.054688 17.984375 C 13.070312 17.941406 13.085938 17.902344 13.101562 17.859375 C 13.15625 17.859375 13.210938 17.859375 13.265625 17.859375 C 13.257812 17.875 13.246094 17.890625 13.234375 17.90625 C 13.214844 17.941406 13.214844 17.941406 13.195312 17.976562 C 13.179688 18.003906 13.164062 18.027344 13.148438 18.054688 C 13.0625 18.203125 13.023438 18.34375 13.007812 18.515625 C 12.976562 18.515625 12.945312 18.515625 12.914062 18.515625 C 12.914062 18.5 12.910156 18.484375 12.910156 18.464844 C 12.886719 18.269531 12.816406 18.125 12.71875 17.953125 C 12.679688 17.882812 12.679688 17.882812 12.679688 17.835938 Z M 12.679688 17.835938 "></path>
<path style="stroke: none; fill-rule: nonzero; fill: #fee1c5; fill-opacity: 1" d="M 11.132812 9.445312 C 11.140625 9.445312 11.148438 9.445312 11.15625 9.445312 C 11.164062 10.953125 11.171875 12.460938 11.179688 14.015625 C 11.164062 14.015625 11.148438 14.015625 11.132812 14.015625 C 11.105469 13.929688 11.105469 13.855469 11.109375 13.765625 C 11.109375 13.746094 11.109375 13.730469 11.109375 13.710938 C 11.109375 13.648438 11.109375 13.585938 11.109375 13.523438 C 11.109375 13.480469 11.109375 13.4375 11.109375 13.390625 C 11.109375 13.269531 11.109375 13.148438 11.113281 13.03125 C 11.113281 12.902344 11.113281 12.777344 11.113281 12.652344 C 11.113281 12.414062 11.117188 12.175781 11.117188 11.9375 C 11.121094 11.664062 11.121094 11.394531 11.121094 11.121094 C 11.125 10.5625 11.128906 10.003906 11.132812 9.445312 Z M 11.132812 9.445312 "></path>
<path style="stroke: none; fill-rule: nonzero; fill: #f9eee2; fill-opacity: 1" d="M 11.625 9.375 C 11.625 9.382812 11.625 9.390625 11.625 9.398438 C 11.476562 9.398438 11.332031 9.398438 11.179688 9.398438 C 11.179688 10.746094 11.179688 12.089844 11.179688 13.476562 C 11.171875 13.476562 11.164062 13.476562 11.15625 13.476562 C 11.15625 13.457031 11.15625 13.433594 11.15625 13.414062 C 11.152344 12.910156 11.152344 12.40625 11.148438 11.902344 C 11.148438 11.660156 11.144531 11.417969 11.144531 11.171875 C 11.144531 10.960938 11.140625 10.75 11.140625 10.535156 C 11.140625 10.425781 11.140625 10.3125 11.140625 10.199219 C 11.140625 10.09375 11.136719 9.988281 11.136719 9.882812 C 11.136719 9.84375 11.136719 9.804688 11.136719 9.765625 C 11.136719 9.710938 11.136719 9.660156 11.136719 9.605469 C 11.136719 9.578125 11.136719 9.546875 11.136719 9.515625 C 11.136719 9.445312 11.136719 9.445312 11.109375 9.375 C 11.183594 9.371094 11.253906 9.367188 11.328125 9.363281 C 11.359375 9.359375 11.359375 9.359375 11.390625 9.359375 C 11.421875 9.355469 11.421875 9.355469 11.449219 9.355469 C 11.476562 9.351562 11.476562 9.351562 11.503906 9.351562 C 11.554688 9.351562 11.554688 9.351562 11.625 9.375 Z M 11.625 9.375 "></path>
<path style="stroke: none; fill-rule: nonzero; fill: #ebf3f6; fill-opacity: 1" d="M 14.070312 18.230469 C 14.101562 18.234375 14.101562 18.234375 14.132812 18.234375 C 14.15625 18.234375 14.175781 18.234375 14.199219 18.234375 C 14.214844 18.234375 14.234375 18.234375 14.25 18.234375 C 14.253906 18.285156 14.257812 18.335938 14.261719 18.386719 C 14.265625 18.414062 14.269531 18.441406 14.269531 18.46875 C 14.273438 18.492188 14.273438 18.515625 14.273438 18.539062 C 14.230469 18.582031 14.171875 18.574219 14.117188 18.578125 C 14.078125 18.582031 14.078125 18.582031 14.039062 18.582031 C 13.972656 18.585938 13.917969 18.578125 13.851562 18.5625 C 13.851562 18.554688 13.851562 18.546875 13.851562 18.539062 C 13.898438 18.539062 13.945312 18.539062 13.992188 18.539062 C 13.992188 18.519531 13.992188 18.5 13.992188 18.476562 C 13.992188 18.453125 13.992188 18.425781 13.992188 18.398438 C 13.992188 18.375 13.988281 18.347656 13.988281 18.320312 C 13.992188 18.234375 13.992188 18.234375 14.070312 18.230469 Z M 14.070312 18.230469 "></path>
<path style="stroke: none; fill-rule: nonzero; fill: #3e4344; fill-opacity: 1" d="M 14.90625 15.070312 C 15.054688 15.070312 15.199219 15.070312 15.351562 15.070312 C 15.351562 15.078125 15.351562 15.085938 15.351562 15.09375 C 15.210938 15.09375 15.074219 15.09375 14.929688 15.09375 C 14.929688 15.148438 14.933594 15.207031 14.933594 15.265625 C 14.953125 15.839844 14.957031 16.417969 14.953125 16.992188 C 15.0625 16.992188 15.167969 16.992188 15.28125 16.992188 C 15.28125 17 15.28125 17.007812 15.28125 17.015625 C 15.09375 17.027344 15.09375 17.027344 14.90625 17.039062 C 14.90625 16.390625 14.90625 15.738281 14.90625 15.070312 Z M 14.90625 15.070312 "></path>
<path style="stroke: none; fill-rule: nonzero; fill: #020402; fill-opacity: 1" d="M 4.078125 15.070312 C 4.242188 15.078125 4.402344 15.085938 4.570312 15.09375 C 4.570312 15.132812 4.570312 15.171875 4.570312 15.210938 C 4.5625 15.179688 4.554688 15.148438 4.546875 15.117188 C 4.40625 15.125 4.269531 15.132812 4.125 15.140625 C 4.132812 15.15625 4.140625 15.171875 4.148438 15.1875 C 4.148438 15.242188 4.148438 15.296875 4.148438 15.351562 C 4.148438 15.367188 4.148438 15.386719 4.148438 15.402344 C 4.148438 15.460938 4.148438 15.515625 4.144531 15.570312 C 4.144531 15.609375 4.144531 15.648438 4.144531 15.6875 C 4.140625 15.789062 4.140625 15.890625 4.140625 15.996094 C 4.136719 16.097656 4.136719 16.203125 4.132812 16.308594 C 4.132812 16.511719 4.128906 16.71875 4.125 16.921875 C 4.117188 16.921875 4.109375 16.921875 4.101562 16.921875 C 4.09375 16.3125 4.085938 15.699219 4.078125 15.070312 Z M 4.078125 15.070312 "></path>
<path style="stroke: none; fill-rule: nonzero; fill: #edf3ef; fill-opacity: 1" d="M 13.265625 15.914062 C 13.273438 15.914062 13.28125 15.914062 13.289062 15.914062 C 13.289062 15.984375 13.289062 16.054688 13.289062 16.125 C 13.304688 16.125 13.320312 16.125 13.335938 16.125 C 13.335938 16.410156 13.335938 16.699219 13.335938 16.992188 C 13.3125 16.976562 13.289062 16.960938 13.265625 16.945312 C 13.257812 16.902344 13.257812 16.902344 13.257812 16.84375 C 13.257812 16.824219 13.257812 16.804688 13.257812 16.78125 C 13.257812 16.761719 13.257812 16.738281 13.257812 16.714844 C 13.257812 16.691406 13.257812 16.667969 13.257812 16.644531 C 13.257812 16.574219 13.261719 16.5 13.261719 16.425781 C 13.261719 16.378906 13.261719 16.328125 13.261719 16.277344 C 13.261719 16.15625 13.265625 16.035156 13.265625 15.914062 Z M 13.265625 15.914062 "></path>
<path style="stroke: none; fill-rule: nonzero; fill: #050f0d; fill-opacity: 1" d="M 12.84375 3.820312 C 12.859375 3.820312 12.875 3.820312 12.890625 3.820312 C 12.890625 4.121094 12.890625 4.421875 12.890625 4.734375 C 12.597656 4.726562 12.304688 4.71875 12 4.710938 C 12 4.703125 12 4.695312 12 4.6875 C 12.277344 4.679688 12.558594 4.671875 12.84375 4.664062 C 12.84375 4.386719 12.84375 4.105469 12.84375 3.820312 Z M 12.84375 3.820312 "></path>
<path style="stroke: none; fill-rule: nonzero; fill: #edf2f1; fill-opacity: 1" d="M 15.210938 17.882812 C 15.238281 17.921875 15.238281 17.921875 15.257812 17.976562 C 15.242188 18.023438 15.226562 18.070312 15.210938 18.117188 C 15.09375 18.117188 14.980469 18.117188 14.859375 18.117188 C 14.859375 18.070312 14.859375 18.023438 14.859375 17.976562 C 14.890625 17.976562 14.890625 17.976562 14.925781 17.972656 C 14.953125 17.972656 14.980469 17.972656 15.007812 17.96875 C 15.035156 17.96875 15.0625 17.964844 15.09375 17.964844 C 15.117188 17.960938 15.140625 17.957031 15.164062 17.953125 C 15.179688 17.929688 15.195312 17.90625 15.210938 17.882812 Z M 15.210938 17.882812 "></path>
<path style="stroke: none; fill-rule: nonzero; fill: #eef6f0; fill-opacity: 1" d="M 10.078125 5.25 C 10.117188 5.25 10.15625 5.25 10.195312 5.25 C 10.195312 5.265625 10.195312 5.28125 10.195312 5.296875 C 10.21875 5.296875 10.238281 5.296875 10.261719 5.296875 C 10.5 5.296875 10.734375 5.300781 10.96875 5.308594 C 11.003906 5.308594 11.039062 5.3125 11.070312 5.3125 C 11.15625 5.316406 11.238281 5.316406 11.320312 5.320312 C 11.320312 5.328125 11.320312 5.335938 11.320312 5.34375 C 10.777344 5.34375 10.238281 5.34375 9.679688 5.34375 C 9.679688 5.335938 9.679688 5.328125 9.679688 5.320312 C 9.875 5.308594 9.875 5.308594 10.078125 5.296875 C 10.078125 5.28125 10.078125 5.265625 10.078125 5.25 Z M 10.078125 5.25 "></path>
<path style="stroke: none; fill-rule: nonzero; fill: #f8ab7c; fill-opacity: 1" d="M 14.601562 9.046875 C 14.628906 9.15625 14.617188 9.203125 14.578125 9.304688 C 14.300781 9.484375 13.8125 9.402344 13.5 9.375 C 13.5 9.367188 13.5 9.359375 13.5 9.351562 C 13.527344 9.351562 13.527344 9.351562 13.554688 9.351562 C 14.058594 9.339844 14.058594 9.339844 14.554688 9.28125 C 14.570312 9.203125 14.585938 9.125 14.601562 9.046875 Z M 14.601562 9.046875 "></path>
<path style="stroke: none; fill-rule: nonzero; fill: #e8621a; fill-opacity: 1" d="M 14.578125 8.203125 C 14.585938 8.203125 14.59375 8.203125 14.601562 8.203125 C 14.601562 8.332031 14.605469 8.457031 14.605469 8.585938 C 14.605469 8.628906 14.605469 8.671875 14.605469 8.714844 C 14.605469 8.777344 14.605469 8.839844 14.605469 8.902344 C 14.605469 8.921875 14.605469 8.941406 14.605469 8.960938 C 14.605469 9.074219 14.59375 9.171875 14.554688 9.28125 C 14.425781 9.320312 14.316406 9.332031 14.179688 9.328125 C 14.179688 9.320312 14.179688 9.3125 14.179688 9.304688 C 14.265625 9.289062 14.351562 9.273438 14.4375 9.257812 C 14.4375 9.242188 14.4375 9.226562 14.4375 9.210938 C 14.46875 9.210938 14.5 9.210938 14.53125 9.210938 C 14.550781 8.992188 14.5625 8.769531 14.566406 8.546875 C 14.570312 8.515625 14.570312 8.480469 14.570312 8.449219 C 14.574219 8.367188 14.574219 8.285156 14.578125 8.203125 Z M 14.578125 8.203125 "></path>
<path style="stroke: none; fill-rule: nonzero; fill: #d0d8d1; fill-opacity: 1" d="M 10.453125 17.976562 C 10.492188 17.976562 10.53125 17.976562 10.570312 17.976562 C 10.589844 17.976562 10.613281 17.972656 10.632812 17.972656 C 10.6875 17.976562 10.6875 17.976562 10.710938 18 C 10.710938 18.039062 10.710938 18.078125 10.710938 18.117188 C 10.625 18.171875 10.550781 18.167969 10.453125 18.164062 C 10.453125 18.101562 10.453125 18.039062 10.453125 17.976562 Z M 10.453125 17.976562 "></path>
<path style="stroke: none; fill-rule: nonzero; fill: #f4f5f2; fill-opacity: 1" d="M 7.710938 4.757812 C 8.089844 4.757812 8.46875 4.757812 8.859375 4.757812 C 8.859375 4.765625 8.859375 4.773438 8.859375 4.78125 C 8.847656 4.78125 8.832031 4.78125 8.820312 4.78125 C 8.679688 4.785156 8.539062 4.789062 8.398438 4.789062 C 8.347656 4.789062 8.296875 4.792969 8.242188 4.792969 C 8.167969 4.792969 8.09375 4.796875 8.019531 4.796875 C 7.984375 4.796875 7.984375 4.796875 7.949219 4.796875 C 7.925781 4.800781 7.90625 4.800781 7.882812 4.800781 C 7.863281 4.800781 7.84375 4.800781 7.824219 4.800781 C 7.78125 4.800781 7.78125 4.800781 7.757812 4.828125 C 7.757812 4.886719 7.753906 4.945312 7.757812 5.003906 C 7.757812 5.023438 7.757812 5.039062 7.757812 5.054688 C 7.757812 5.097656 7.757812 5.136719 7.757812 5.179688 C 7.742188 5.1875 7.726562 5.195312 7.710938 5.203125 C 7.710938 5.054688 7.710938 4.910156 7.710938 4.757812 Z M 7.710938 4.757812 "></path>
<path style="stroke: none; fill-rule: nonzero; fill: #edf5f6; fill-opacity: 1" d="M 15.3125 11.449219 C 15.378906 11.460938 15.4375 11.460938 15.507812 11.460938 C 15.53125 11.460938 15.554688 11.460938 15.582031 11.460938 C 15.632812 11.460938 15.683594 11.457031 15.734375 11.457031 C 15.757812 11.457031 15.785156 11.457031 15.808594 11.457031 C 15.84375 11.457031 15.84375 11.457031 15.878906 11.457031 C 15.9375 11.460938 15.9375 11.460938 16.03125 11.507812 C 15.730469 11.507812 15.429688 11.507812 15.117188 11.507812 C 15.125 11.492188 15.132812 11.476562 15.140625 11.460938 C 15.203125 11.441406 15.246094 11.433594 15.3125 11.449219 Z M 15.3125 11.449219 "></path>
<path style="stroke: none; fill-rule: nonzero; fill: #e7eff1; fill-opacity: 1" d="M 11.484375 16.242188 C 11.714844 16.242188 11.949219 16.242188 12.1875 16.242188 C 12.1875 16.25 12.1875 16.257812 12.1875 16.265625 C 12.054688 16.285156 11.929688 16.289062 11.792969 16.289062 C 11.742188 16.28125 11.742188 16.28125 11.71875 16.3125 C 11.664062 16.320312 11.609375 16.328125 11.554688 16.335938 C 11.546875 16.390625 11.539062 16.445312 11.53125 16.5 C 11.523438 16.5 11.515625 16.5 11.507812 16.5 C 11.5 16.414062 11.492188 16.328125 11.484375 16.242188 Z M 11.484375 16.242188 "></path>
<path style="stroke: none; fill-rule: nonzero; fill: #f57431; fill-opacity: 1" d="M 13.5 9.09375 C 13.507812 9.09375 13.515625 9.09375 13.523438 9.09375 C 13.53125 9.15625 13.539062 9.21875 13.546875 9.28125 C 13.5625 9.28125 13.578125 9.28125 13.589844 9.28125 C 13.6875 9.28125 13.78125 9.28125 13.878906 9.292969 C 13.96875 9.308594 13.96875 9.308594 14.058594 9.304688 C 14.132812 9.304688 14.132812 9.304688 14.179688 9.351562 C 13.957031 9.351562 13.730469 9.351562 13.5 9.351562 C 13.5 9.265625 13.5 9.179688 13.5 9.09375 Z M 13.5 9.09375 "></path>
<path style="stroke: none; fill-rule: nonzero; fill: #f1f7f4; fill-opacity: 1" d="M 15.304688 7.710938 C 15.3125 7.710938 15.320312 7.710938 15.328125 7.710938 C 15.328125 7.835938 15.332031 7.960938 15.332031 8.085938 C 15.332031 8.128906 15.332031 8.171875 15.332031 8.214844 C 15.332031 8.449219 15.332031 8.675781 15.28125 8.90625 C 15.273438 8.90625 15.265625 8.90625 15.257812 8.90625 C 15.257812 8.84375 15.257812 8.78125 15.257812 8.71875 C 15.257812 8.703125 15.257812 8.683594 15.253906 8.667969 C 15.253906 8.621094 15.257812 8.578125 15.257812 8.53125 C 15.269531 8.519531 15.269531 8.519531 15.28125 8.507812 C 15.285156 8.449219 15.289062 8.390625 15.289062 8.332031 C 15.289062 8.3125 15.289062 8.296875 15.289062 8.277344 C 15.292969 8.222656 15.292969 8.164062 15.292969 8.109375 C 15.296875 8.070312 15.296875 8.03125 15.296875 7.992188 C 15.300781 7.898438 15.300781 7.804688 15.304688 7.710938 Z M 15.304688 7.710938 "></path>
<path style="stroke: none; fill-rule: nonzero; fill: #fad8bb; fill-opacity: 1" d="M 14.648438 3.796875 C 14.65625 3.796875 14.664062 3.796875 14.671875 3.796875 C 14.691406 4.167969 14.699219 4.527344 14.648438 4.898438 C 14.640625 4.898438 14.632812 4.898438 14.625 4.898438 C 14.621094 4.53125 14.621094 4.164062 14.648438 3.796875 Z M 14.648438 3.796875 "></path>
<path style="stroke: none; fill-rule: nonzero; fill: #000303; fill-opacity: 1" d="M 14.929688 15.09375 C 15.078125 15.09375 15.222656 15.09375 15.375 15.09375 C 15.367188 15.109375 15.359375 15.125 15.351562 15.140625 C 15.328125 15.140625 15.300781 15.140625 15.277344 15.140625 C 15.242188 15.140625 15.210938 15.140625 15.175781 15.140625 C 15.160156 15.140625 15.144531 15.140625 15.128906 15.136719 C 15.085938 15.136719 15.042969 15.140625 15 15.140625 C 14.953125 15.1875 14.96875 15.289062 14.96875 15.355469 C 14.96875 15.375 14.96875 15.394531 14.96875 15.414062 C 14.964844 15.476562 14.964844 15.539062 14.964844 15.597656 C 14.960938 15.640625 14.960938 15.683594 14.960938 15.722656 C 14.957031 15.828125 14.957031 15.929688 14.953125 16.03125 C 14.945312 16.03125 14.9375 16.03125 14.929688 16.03125 C 14.929688 15.722656 14.929688 15.414062 14.929688 15.09375 Z M 14.929688 15.09375 "></path>
<path style="stroke: none; fill-rule: nonzero; fill: #000505; fill-opacity: 1" d="M 13.898438 15.867188 C 14.105469 15.867188 14.316406 15.867188 14.53125 15.867188 C 14.53125 15.953125 14.53125 16.039062 14.53125 16.125 C 14.523438 16.125 14.515625 16.125 14.507812 16.125 C 14.5 16.0625 14.492188 16 14.484375 15.9375 C 14.40625 15.921875 14.328125 15.90625 14.25 15.890625 C 14.25 15.90625 14.25 15.921875 14.25 15.9375 C 14.003906 15.914062 14.003906 15.914062 13.898438 15.890625 C 13.898438 15.882812 13.898438 15.875 13.898438 15.867188 Z M 13.898438 15.867188 "></path>
<path style="stroke: none; fill-rule: nonzero; fill: #393e3a; fill-opacity: 1" d="M 5.273438 15.070312 C 5.421875 15.070312 5.566406 15.070312 5.71875 15.070312 C 5.71875 15.078125 5.71875 15.085938 5.71875 15.09375 C 5.679688 15.09375 5.679688 15.09375 5.644531 15.097656 C 5.609375 15.097656 5.578125 15.097656 5.546875 15.101562 C 5.53125 15.101562 5.511719 15.101562 5.496094 15.101562 C 5.441406 15.105469 5.441406 15.105469 5.367188 15.117188 C 5.3125 15.199219 5.3125 15.234375 5.3125 15.328125 C 5.308594 15.355469 5.308594 15.382812 5.308594 15.410156 C 5.308594 15.4375 5.304688 15.46875 5.304688 15.496094 C 5.304688 15.523438 5.304688 15.554688 5.304688 15.582031 C 5.300781 15.65625 5.296875 15.726562 5.296875 15.796875 C 5.289062 15.796875 5.28125 15.796875 5.273438 15.796875 C 5.273438 15.558594 5.273438 15.316406 5.273438 15.070312 Z M 5.273438 15.070312 "></path>
<path style="stroke: none; fill-rule: nonzero; fill: #fbd9c7; fill-opacity: 1" d="M 11.132812 13.3125 C 11.140625 13.3125 11.148438 13.3125 11.15625 13.3125 C 11.164062 13.542969 11.171875 13.777344 11.179688 14.015625 C 11.164062 14.015625 11.148438 14.015625 11.132812 14.015625 C 11.109375 13.945312 11.105469 13.898438 11.105469 13.824219 C 11.105469 13.800781 11.105469 13.777344 11.105469 13.753906 C 11.105469 13.726562 11.105469 13.703125 11.105469 13.675781 C 11.105469 13.652344 11.105469 13.628906 11.105469 13.601562 C 11.105469 13.578125 11.105469 13.554688 11.105469 13.53125 C 11.105469 13.507812 11.105469 13.488281 11.105469 13.464844 C 11.109375 13.410156 11.117188 13.363281 11.132812 13.3125 Z M 11.132812 13.3125 "></path>
<path style="stroke: none; fill-rule: nonzero; fill: #e5ebef; fill-opacity: 1" d="M 9.609375 18.28125 C 9.71875 18.28125 9.824219 18.28125 9.9375 18.28125 C 9.890625 18.375 9.890625 18.375 9.867188 18.398438 C 9.695312 18.410156 9.695312 18.410156 9.632812 18.367188 C 9.609375 18.328125 9.609375 18.328125 9.609375 18.28125 Z M 9.609375 18.28125 "></path>
<path style="stroke: none; fill-rule: nonzero; fill: #fceddd; fill-opacity: 1" d="M 14.484375 9.351562 C 14.390625 9.445312 14.273438 9.453125 14.144531 9.453125 C 14.128906 9.453125 14.109375 9.453125 14.09375 9.453125 C 14.066406 9.453125 14.066406 9.453125 14.039062 9.453125 C 13.90625 9.453125 13.90625 9.453125 13.851562 9.398438 C 13.929688 9.390625 14.007812 9.382812 14.089844 9.375 C 14.109375 9.371094 14.132812 9.371094 14.15625 9.367188 C 14.265625 9.359375 14.375 9.347656 14.484375 9.351562 Z M 14.484375 9.351562 "></path>
<path style="stroke: none; fill-rule: nonzero; fill: #030911; fill-opacity: 1" d="M 15.5625 18.164062 C 15.570312 18.164062 15.578125 18.164062 15.585938 18.164062 C 15.585938 18.28125 15.585938 18.394531 15.585938 18.515625 C 15.546875 18.507812 15.507812 18.5 15.46875 18.492188 C 15.472656 18.453125 15.476562 18.414062 15.480469 18.378906 C 15.480469 18.355469 15.484375 18.335938 15.484375 18.3125 C 15.492188 18.257812 15.492188 18.257812 15.515625 18.210938 C 15.53125 18.210938 15.546875 18.210938 15.5625 18.210938 C 15.5625 18.195312 15.5625 18.179688 15.5625 18.164062 Z M 15.5625 18.164062 "></path>
<path style="stroke: none; fill-rule: nonzero; fill: #eef1f3; fill-opacity: 1" d="M 15.609375 18.140625 C 15.679688 18.234375 15.707031 18.285156 15.726562 18.398438 C 15.695312 18.453125 15.695312 18.453125 15.65625 18.492188 C 15.648438 18.507812 15.640625 18.523438 15.632812 18.539062 C 15.570312 18.539062 15.507812 18.539062 15.445312 18.539062 C 15.445312 18.53125 15.445312 18.523438 15.445312 18.515625 C 15.5 18.515625 15.554688 18.515625 15.609375 18.515625 C 15.609375 18.390625 15.609375 18.269531 15.609375 18.140625 Z M 15.609375 18.140625 "></path>
<path style="stroke: none; fill-rule: nonzero; fill: #232825; fill-opacity: 1" d="M 6.703125 16.921875 C 6.71875 16.925781 6.734375 16.929688 6.746094 16.929688 C 6.929688 16.96875 7.105469 16.980469 7.289062 16.992188 C 7.28125 17.007812 7.273438 17.023438 7.265625 17.039062 C 7.066406 17.046875 6.890625 17.042969 6.703125 16.96875 C 6.703125 16.953125 6.703125 16.9375 6.703125 16.921875 Z M 6.703125 16.921875 "></path>
<path style="stroke: none; fill-rule: nonzero; fill: #f2671d; fill-opacity: 1" d="M 10.453125 9.398438 C 10.667969 9.398438 10.886719 9.398438 11.109375 9.398438 C 11.109375 9.484375 11.109375 9.570312 11.109375 9.65625 C 11.101562 9.65625 11.09375 9.65625 11.085938 9.65625 C 11.078125 9.601562 11.070312 9.546875 11.0625 9.492188 C 10.929688 9.449219 10.804688 9.4375 10.664062 9.429688 C 10.644531 9.429688 10.625 9.429688 10.601562 9.429688 C 10.554688 9.425781 10.503906 9.421875 10.453125 9.421875 C 10.453125 9.414062 10.453125 9.40625 10.453125 9.398438 Z M 10.453125 9.398438 "></path>
<path style="stroke: none; fill-rule: nonzero; fill: #e1eae7; fill-opacity: 1" d="M 15.421875 17.90625 C 15.429688 17.90625 15.4375 17.90625 15.445312 17.90625 C 15.445312 18.105469 15.445312 18.308594 15.445312 18.515625 C 15.421875 18.5 15.398438 18.484375 15.375 18.46875 C 15.339844 18.289062 15.394531 18.085938 15.421875 17.90625 Z M 15.421875 17.90625 "></path>
<path style="stroke: none; fill-rule: nonzero; fill: #141a1a; fill-opacity: 1" d="M 7.40625 18.164062 C 7.421875 18.164062 7.4375 18.164062 7.453125 18.164062 C 7.453125 18.21875 7.453125 18.273438 7.453125 18.328125 C 7.359375 18.328125 7.265625 18.328125 7.171875 18.328125 C 7.171875 18.3125 7.171875 18.296875 7.171875 18.28125 C 7.1875 18.28125 7.203125 18.28125 7.21875 18.28125 C 7.21875 18.265625 7.21875 18.25 7.21875 18.234375 C 7.28125 18.242188 7.34375 18.25 7.40625 18.257812 C 7.40625 18.226562 7.40625 18.195312 7.40625 18.164062 Z M 7.40625 18.164062 "></path>
<path style="stroke: none; fill-rule: nonzero; fill: #c6d7d3; fill-opacity: 1" d="M 8.859375 18.070312 C 8.917969 18.09375 8.917969 18.09375 8.976562 18.117188 C 8.976562 18.164062 8.976562 18.210938 8.976562 18.257812 C 8.921875 18.257812 8.867188 18.257812 8.8125 18.257812 C 8.832031 18.125 8.832031 18.125 8.859375 18.070312 Z M 8.859375 18.070312 "></path>
<path style="stroke: none; fill-rule: nonzero; fill: #343b34; fill-opacity: 1" d="M 11.015625 8.34375 C 11.085938 8.34375 11.152344 8.34375 11.222656 8.34375 C 11.242188 8.34375 11.261719 8.34375 11.285156 8.339844 C 11.300781 8.339844 11.320312 8.339844 11.339844 8.339844 C 11.367188 8.339844 11.367188 8.339844 11.394531 8.339844 C 11.4375 8.34375 11.4375 8.34375 11.484375 8.367188 C 11.476562 8.453125 11.46875 8.539062 11.460938 8.625 C 11.414062 8.53125 11.414062 8.53125 11.402344 8.46875 C 11.398438 8.441406 11.398438 8.441406 11.390625 8.414062 C 11.320312 8.378906 11.253906 8.382812 11.175781 8.378906 C 11.148438 8.375 11.117188 8.375 11.085938 8.371094 C 11.050781 8.371094 11.050781 8.371094 11.015625 8.367188 C 11.015625 8.359375 11.015625 8.351562 11.015625 8.34375 Z M 11.015625 8.34375 "></path>
<path style="stroke: none; fill-rule: nonzero; fill: #c3d2d4; fill-opacity: 1" d="M 11.296875 18.046875 C 11.3125 18.046875 11.328125 18.046875 11.34375 18.046875 C 11.375 18.132812 11.390625 18.191406 11.390625 18.28125 C 11.34375 18.28125 11.296875 18.28125 11.25 18.28125 C 11.261719 18.199219 11.269531 18.125 11.296875 18.046875 Z M 11.296875 18.046875 "></path>
<path style="stroke: none; fill-rule: nonzero; fill: #dff1f5; fill-opacity: 1" d="M 16.96875 17.929688 C 16.976562 17.953125 16.984375 17.976562 16.992188 18 C 16.945312 18.011719 16.902344 18.023438 16.859375 18.035156 C 16.832031 18.039062 16.808594 18.046875 16.78125 18.050781 C 16.738281 18.0625 16.695312 18.074219 16.65625 18.085938 C 16.640625 18.085938 16.628906 18.089844 16.617188 18.09375 C 16.617188 18.054688 16.617188 18.015625 16.617188 17.976562 C 16.734375 17.976562 16.847656 17.976562 16.96875 17.976562 C 16.96875 17.960938 16.96875 17.945312 16.96875 17.929688 Z M 16.96875 17.929688 "></path>
<path style="stroke: none; fill-rule: nonzero; fill: #dfe7ea; fill-opacity: 1" d="M 15.46875 17.789062 C 15.539062 17.789062 15.609375 17.789062 15.679688 17.789062 C 15.695312 17.832031 15.710938 17.871094 15.726562 17.914062 C 15.738281 17.9375 15.746094 17.960938 15.753906 17.984375 C 15.773438 18.046875 15.773438 18.046875 15.75 18.117188 C 15.703125 18.03125 15.65625 17.945312 15.609375 17.859375 C 15.554688 17.859375 15.5 17.859375 15.445312 17.859375 C 15.453125 17.835938 15.460938 17.8125 15.46875 17.789062 Z M 15.46875 17.789062 "></path>
<path style="stroke: none; fill-rule: nonzero; fill: #f98337; fill-opacity: 1" d="M 14.554688 9.117188 C 14.578125 9.1875 14.578125 9.207031 14.554688 9.28125 C 14.425781 9.324219 14.316406 9.332031 14.179688 9.328125 C 14.179688 9.320312 14.179688 9.3125 14.179688 9.304688 C 14.308594 9.28125 14.308594 9.28125 14.4375 9.257812 C 14.4375 9.242188 14.4375 9.226562 14.4375 9.210938 C 14.46875 9.210938 14.5 9.210938 14.53125 9.210938 C 14.539062 9.179688 14.546875 9.148438 14.554688 9.117188 Z M 14.554688 9.117188 "></path>
<path style="stroke: none; fill-rule: nonzero; fill: #dee5e4; fill-opacity: 1" d="M 15.703125 18.328125 C 15.71875 18.335938 15.734375 18.34375 15.75 18.351562 C 15.75 18.367188 15.75 18.382812 15.75 18.398438 C 15.832031 18.386719 15.832031 18.386719 15.914062 18.375 C 15.855469 18.460938 15.820312 18.460938 15.726562 18.492188 C 15.683594 18.527344 15.683594 18.527344 15.65625 18.5625 C 15.640625 18.554688 15.625 18.546875 15.609375 18.539062 C 15.625 18.511719 15.625 18.511719 15.644531 18.484375 C 15.675781 18.429688 15.691406 18.390625 15.703125 18.328125 Z M 15.703125 18.328125 "></path>
<path style="stroke: none; fill-rule: nonzero; fill: #2b3130; fill-opacity: 1" d="M 14.53125 15.867188 C 14.539062 15.867188 14.546875 15.867188 14.554688 15.867188 C 14.554688 16 14.554688 16.128906 14.554688 16.265625 C 14.53125 16.257812 14.507812 16.25 14.484375 16.242188 C 14.484375 16.191406 14.480469 16.144531 14.480469 16.09375 C 14.480469 16.066406 14.480469 16.039062 14.480469 16.011719 C 14.484375 15.9375 14.484375 15.9375 14.53125 15.867188 Z M 14.53125 15.867188 "></path>
<path style="stroke: none; fill-rule: nonzero; fill: #edf3f5; fill-opacity: 1" d="M 12.304688 15.890625 C 12.328125 15.90625 12.351562 15.921875 12.375 15.9375 C 12.367188 15.945312 12.359375 15.953125 12.351562 15.960938 C 12.351562 16.007812 12.347656 16.054688 12.351562 16.101562 C 12.351562 16.140625 12.351562 16.140625 12.351562 16.179688 C 12.351562 16.203125 12.351562 16.222656 12.351562 16.242188 C 12.304688 16.265625 12.304688 16.265625 12.257812 16.289062 C 12.261719 16.230469 12.265625 16.171875 12.269531 16.117188 C 12.269531 16.101562 12.269531 16.082031 12.269531 16.066406 C 12.277344 15.941406 12.277344 15.941406 12.304688 15.890625 Z M 12.304688 15.890625 "></path>
<path style="stroke: none; fill-rule: nonzero; fill: #e2501e; fill-opacity: 1" d="M 10.054688 9.398438 C 10.140625 9.398438 10.226562 9.398438 10.3125 9.398438 C 10.3125 9.40625 10.3125 9.414062 10.3125 9.421875 C 10.25 9.421875 10.1875 9.421875 10.125 9.421875 C 10.125 9.445312 10.125 9.46875 10.125 9.492188 C 10.125 9.5625 10.125 9.5625 10.101562 9.585938 C 10.09375 9.640625 10.085938 9.695312 10.078125 9.75 C 10.070312 9.75 10.0625 9.75 10.054688 9.75 C 10.054688 9.632812 10.054688 9.519531 10.054688 9.398438 Z M 10.054688 9.398438 "></path>
<path style="stroke: none; fill-rule: nonzero; fill: #eaf1f3; fill-opacity: 1" d="M 15.984375 18.140625 C 15.992188 18.140625 16 18.140625 16.007812 18.140625 C 16.007812 18.257812 16.007812 18.371094 16.007812 18.492188 C 15.957031 18.441406 15.953125 18.421875 15.9375 18.351562 C 15.933594 18.335938 15.925781 18.320312 15.921875 18.304688 C 15.910156 18.234375 15.941406 18.199219 15.984375 18.140625 Z M 15.984375 18.140625 "></path>
<path style="stroke: none; fill-rule: nonzero; fill: #010204; fill-opacity: 1" d="M 5.296875 15.164062 C 5.304688 15.164062 5.3125 15.164062 5.320312 15.164062 C 5.328125 15.378906 5.335938 15.597656 5.34375 15.820312 C 5.320312 15.828125 5.296875 15.835938 5.273438 15.84375 C 5.257812 15.828125 5.242188 15.8125 5.226562 15.796875 C 5.25 15.796875 5.273438 15.796875 5.296875 15.796875 C 5.296875 15.589844 5.296875 15.378906 5.296875 15.164062 Z M 5.296875 15.164062 "></path>
<path style="stroke: none; fill-rule: nonzero; fill: #060c08; fill-opacity: 1" d="M 17.082031 15.089844 C 17.117188 15.089844 17.15625 15.09375 17.191406 15.09375 C 17.210938 15.09375 17.230469 15.09375 17.25 15.09375 C 17.296875 15.09375 17.34375 15.09375 17.390625 15.09375 C 17.390625 15.101562 17.390625 15.109375 17.390625 15.117188 C 17.359375 15.117188 17.359375 15.117188 17.324219 15.117188 C 17.132812 15.117188 17.132812 15.117188 16.972656 15.199219 C 16.957031 15.21875 16.9375 15.238281 16.921875 15.257812 C 16.972656 15.09375 16.972656 15.09375 17.082031 15.089844 Z M 17.082031 15.089844 "></path>
<path style="stroke: none; fill-rule: nonzero; fill: #e5ece8; fill-opacity: 1" d="M 10.476562 18 C 10.5 18 10.523438 18 10.546875 18 C 10.546875 18.03125 10.546875 18.0625 10.546875 18.09375 C 10.578125 18.109375 10.609375 18.125 10.640625 18.140625 C 10.617188 18.164062 10.617188 18.164062 10.546875 18.164062 C 10.511719 18.164062 10.511719 18.164062 10.476562 18.164062 C 10.476562 18.109375 10.476562 18.054688 10.476562 18 Z M 10.476562 18 "></path>
<path style="stroke: none; fill-rule: nonzero; fill: #e1eaf3; fill-opacity: 1" d="M 17.34375 15.375 C 17.367188 15.382812 17.390625 15.390625 17.414062 15.398438 C 17.402344 15.453125 17.386719 15.507812 17.367188 15.5625 C 17.320312 15.570312 17.273438 15.578125 17.226562 15.585938 C 17.253906 15.503906 17.289062 15.441406 17.34375 15.375 Z M 17.34375 15.375 "></path>
<path style="stroke: none; fill-rule: nonzero; fill: #ebefe7; fill-opacity: 1" d="M 10.078125 5.25 C 10.117188 5.25 10.15625 5.25 10.195312 5.25 C 10.195312 5.265625 10.195312 5.28125 10.195312 5.296875 C 10.320312 5.296875 10.441406 5.296875 10.570312 5.296875 C 10.570312 5.304688 10.570312 5.3125 10.570312 5.320312 C 10.40625 5.320312 10.246094 5.320312 10.078125 5.320312 C 10.078125 5.296875 10.078125 5.273438 10.078125 5.25 Z M 10.078125 5.25 "></path>
<path style="stroke: none; fill-rule: nonzero; fill: #eef7f7; fill-opacity: 1" d="M 13.828125 17.789062 C 13.90625 17.796875 13.984375 17.804688 14.0625 17.8125 C 14.046875 17.859375 14.03125 17.90625 14.015625 17.953125 C 14.007812 17.953125 14 17.953125 13.992188 17.953125 C 13.992188 17.914062 13.992188 17.875 13.992188 17.835938 C 13.945312 17.835938 13.898438 17.835938 13.851562 17.835938 C 13.851562 17.882812 13.851562 17.929688 13.851562 17.976562 C 13.84375 17.976562 13.835938 17.976562 13.828125 17.976562 C 13.828125 17.914062 13.828125 17.851562 13.828125 17.789062 Z M 13.828125 17.789062 "></path>
<path style="stroke: none; fill-rule: nonzero; fill: #000603; fill-opacity: 1" d="M 13.007812 18.328125 C 13.007812 18.390625 13.007812 18.453125 13.007812 18.515625 C 12.976562 18.515625 12.945312 18.515625 12.914062 18.515625 C 12.910156 18.449219 12.910156 18.449219 12.914062 18.375 C 12.984375 18.328125 12.984375 18.328125 13.007812 18.328125 Z M 13.007812 18.328125 "></path>
<path style="stroke: none; fill-rule: nonzero; fill: #c9d5d6; fill-opacity: 1" d="M 14.058594 18.230469 C 14.105469 18.234375 14.15625 18.234375 14.203125 18.234375 C 14.203125 18.25 14.203125 18.265625 14.203125 18.28125 C 14.148438 18.289062 14.09375 18.296875 14.039062 18.304688 C 14.03125 18.375 14.023438 18.445312 14.015625 18.515625 C 14.007812 18.515625 14 18.515625 13.992188 18.515625 C 13.992188 18.472656 13.992188 18.429688 13.992188 18.386719 C 13.992188 18.363281 13.988281 18.339844 13.988281 18.316406 C 13.992188 18.234375 13.992188 18.234375 14.058594 18.230469 Z M 14.058594 18.230469 "></path>
<path style="stroke: none; fill-rule: nonzero; fill: #131f18; fill-opacity: 1" d="M 13.101562 17.859375 C 13.15625 17.859375 13.210938 17.859375 13.265625 17.859375 C 13.234375 17.917969 13.234375 17.917969 13.195312 17.976562 C 13.171875 17.976562 13.148438 17.976562 13.125 17.976562 C 13.117188 17.9375 13.109375 17.898438 13.101562 17.859375 Z M 13.101562 17.859375 "></path>
<path style="stroke: none; fill-rule: nonzero; fill: #d6dad9; fill-opacity: 1" d="M 7.59375 15.914062 C 7.609375 15.914062 7.625 15.914062 7.640625 15.914062 C 7.648438 16.160156 7.648438 16.160156 7.59375 16.265625 C 7.585938 16.265625 7.578125 16.265625 7.570312 16.265625 C 7.578125 16.148438 7.585938 16.035156 7.59375 15.914062 Z M 7.59375 15.914062 "></path>
<path style="stroke: none; fill-rule: nonzero; fill: #f3f7f6; fill-opacity: 1" d="M 10.578125 6.722656 C 10.605469 6.722656 10.636719 6.722656 10.664062 6.726562 C 10.6875 6.726562 10.710938 6.726562 10.734375 6.726562 C 10.734375 6.734375 10.734375 6.742188 10.734375 6.75 C 10.71875 6.75 10.703125 6.753906 10.6875 6.753906 C 10.578125 6.761719 10.484375 6.773438 10.382812 6.820312 C 10.359375 6.820312 10.335938 6.820312 10.3125 6.820312 C 10.3125 6.804688 10.3125 6.789062 10.3125 6.773438 C 10.398438 6.71875 10.476562 6.722656 10.578125 6.722656 Z M 10.578125 6.722656 "></path>
<path style="stroke: none; fill-rule: nonzero; fill: #dbebee; fill-opacity: 1" d="M 16.617188 18.257812 C 16.695312 18.257812 16.773438 18.257812 16.851562 18.257812 C 16.78125 18.304688 16.78125 18.304688 16.6875 18.304688 C 16.695312 18.328125 16.703125 18.351562 16.710938 18.375 C 16.679688 18.375 16.648438 18.375 16.617188 18.375 C 16.617188 18.335938 16.617188 18.296875 16.617188 18.257812 Z M 16.617188 18.257812 "></path>
<path style="stroke: none; fill-rule: nonzero; fill: #e7f1f2; fill-opacity: 1" d="M 13.265625 17.859375 C 13.28125 17.875 13.296875 17.890625 13.3125 17.90625 C 13.257812 17.992188 13.210938 18.0625 13.125 18.117188 C 13.136719 18 13.1875 17.945312 13.265625 17.859375 Z M 13.265625 17.859375 "></path>
<path style="stroke: none; fill-rule: nonzero; fill: #edeeeb; fill-opacity: 1" d="M 15.28125 8.507812 C 15.34375 8.601562 15.324219 8.640625 15.308594 8.746094 C 15.304688 8.777344 15.296875 8.804688 15.292969 8.835938 C 15.289062 8.859375 15.285156 8.882812 15.28125 8.90625 C 15.273438 8.90625 15.265625 8.90625 15.257812 8.90625 C 15.257812 8.84375 15.257812 8.78125 15.257812 8.71875 C 15.257812 8.703125 15.257812 8.683594 15.253906 8.667969 C 15.253906 8.621094 15.257812 8.578125 15.257812 8.53125 C 15.265625 8.523438 15.273438 8.515625 15.28125 8.507812 Z M 15.28125 8.507812 "></path>
<path style="stroke: none; fill-rule: nonzero; fill: #000a0a; fill-opacity: 1" d="M 14.507812 15.070312 C 14.554688 15.070312 14.601562 15.070312 14.648438 15.070312 C 14.640625 15.195312 14.632812 15.316406 14.625 15.445312 C 14.617188 15.445312 14.609375 15.445312 14.601562 15.445312 C 14.59375 15.335938 14.585938 15.230469 14.578125 15.117188 C 14.554688 15.109375 14.53125 15.101562 14.507812 15.09375 C 14.507812 15.085938 14.507812 15.078125 14.507812 15.070312 Z M 14.507812 15.070312 "></path>
<path style="stroke: none; fill-rule: nonzero; fill: #232d2a; fill-opacity: 1" d="M 20.859375 16.289062 C 20.867188 16.289062 20.875 16.289062 20.882812 16.289062 C 20.882812 16.320312 20.882812 16.355469 20.882812 16.390625 C 20.882812 16.40625 20.886719 16.425781 20.886719 16.445312 C 20.882812 16.496094 20.875 16.542969 20.859375 16.59375 C 20.84375 16.59375 20.828125 16.59375 20.8125 16.59375 C 20.808594 16.480469 20.816406 16.394531 20.859375 16.289062 Z M 20.859375 16.289062 "></path>
<path style="stroke: none; fill-rule: nonzero; fill: #dadfdf; fill-opacity: 1" d="M 7.335938 15 C 7.453125 15.046875 7.453125 15.046875 7.570312 15.09375 C 7.570312 15.109375 7.570312 15.125 7.570312 15.140625 C 7.484375 15.117188 7.398438 15.09375 7.3125 15.070312 C 7.320312 15.046875 7.328125 15.023438 7.335938 15 Z M 7.335938 15 "></path>
<path style="stroke: none; fill-rule: nonzero; fill: #d2d6d5; fill-opacity: 1" d="M 8.0625 17.765625 C 8.070312 17.78125 8.078125 17.796875 8.085938 17.8125 C 8.125 17.8125 8.164062 17.8125 8.203125 17.8125 C 8.203125 17.820312 8.203125 17.828125 8.203125 17.835938 C 8.1875 17.839844 8.171875 17.839844 8.15625 17.84375 C 8.121094 17.851562 8.121094 17.851562 8.089844 17.855469 C 8.058594 17.863281 8.058594 17.863281 8.027344 17.867188 C 7.964844 17.878906 7.964844 17.878906 7.898438 17.929688 C 7.898438 17.898438 7.898438 17.867188 7.898438 17.835938 C 7.980469 17.824219 7.980469 17.824219 8.0625 17.8125 C 8.0625 17.796875 8.0625 17.78125 8.0625 17.765625 Z M 8.0625 17.765625 "></path>
<path style="stroke: none; fill-rule: nonzero; fill: #dbe1e0; fill-opacity: 1" d="M 17.0625 16.21875 C 17.148438 16.246094 17.15625 16.269531 17.195312 16.347656 C 17.207031 16.367188 17.214844 16.386719 17.226562 16.40625 C 17.234375 16.421875 17.242188 16.4375 17.25 16.453125 C 17.226562 16.464844 17.226562 16.464844 17.203125 16.476562 C 17.179688 16.441406 17.15625 16.410156 17.132812 16.375 C 17.121094 16.355469 17.105469 16.335938 17.09375 16.316406 C 17.0625 16.265625 17.0625 16.265625 17.0625 16.21875 Z M 17.0625 16.21875 "></path>
<path style="stroke: none; fill-rule: nonzero; fill: #010a0b; fill-opacity: 1" d="M 18.984375 16.03125 C 18.992188 16.03125 19 16.03125 19.007812 16.03125 C 19.015625 16.101562 19.023438 16.171875 19.03125 16.242188 C 18.9375 16.234375 18.84375 16.226562 18.75 16.21875 C 18.75 16.210938 18.75 16.203125 18.75 16.195312 C 18.855469 16.183594 18.855469 16.183594 18.960938 16.171875 C 18.96875 16.125 18.976562 16.078125 18.984375 16.03125 Z M 18.984375 16.03125 "></path>
<path style="stroke: none; fill-rule: nonzero; fill: #ced6d4; fill-opacity: 1" d="M 20.179688 15.46875 C 20.179688 15.484375 20.179688 15.5 20.179688 15.515625 C 20.101562 15.53125 20.023438 15.546875 19.945312 15.5625 C 19.945312 15.539062 19.945312 15.515625 19.945312 15.492188 C 20.019531 15.453125 20.097656 15.46875 20.179688 15.46875 Z M 20.179688 15.46875 "></path>
<path style="stroke: none; fill-rule: nonzero; fill: #f3fbf6; fill-opacity: 1" d="M 14.648438 15.09375 C 14.65625 15.09375 14.664062 15.09375 14.671875 15.09375 C 14.671875 15.1875 14.671875 15.28125 14.671875 15.375 C 14.6875 15.382812 14.703125 15.390625 14.71875 15.398438 C 14.710938 15.429688 14.703125 15.460938 14.695312 15.492188 C 14.679688 15.492188 14.664062 15.492188 14.648438 15.492188 C 14.648438 15.359375 14.648438 15.230469 14.648438 15.09375 Z M 14.648438 15.09375 "></path>
<path style="stroke: none; fill-rule: nonzero; fill: #edf0ec; fill-opacity: 1" d="M 16.195312 16.171875 C 16.195312 16.25 16.183594 16.265625 16.136719 16.328125 C 16.128906 16.34375 16.117188 16.359375 16.105469 16.371094 C 16.097656 16.382812 16.085938 16.394531 16.078125 16.40625 C 16.070312 16.40625 16.0625 16.40625 16.054688 16.40625 C 16.054688 16.367188 16.054688 16.328125 16.054688 16.289062 C 16.070312 16.289062 16.085938 16.289062 16.101562 16.289062 C 16.109375 16.273438 16.113281 16.257812 16.121094 16.242188 C 16.148438 16.195312 16.148438 16.195312 16.195312 16.171875 Z M 16.195312 16.171875 "></path>
<path style="stroke: none; fill-rule: nonzero; fill: #eaefed; fill-opacity: 1" d="M 11.648438 18.398438 C 11.695312 18.445312 11.695312 18.445312 11.71875 18.492188 C 11.757812 18.484375 11.796875 18.476562 11.835938 18.46875 C 11.792969 18.515625 11.792969 18.515625 11.742188 18.5625 C 11.71875 18.5625 11.695312 18.5625 11.671875 18.5625 C 11.664062 18.507812 11.65625 18.453125 11.648438 18.398438 Z M 11.648438 18.398438 "></path>
<path style="stroke: none; fill-rule: nonzero; fill: #0b1317; fill-opacity: 1" d="M 7.21875 18.234375 C 7.28125 18.242188 7.34375 18.25 7.40625 18.257812 C 7.40625 18.273438 7.40625 18.289062 7.40625 18.304688 C 7.34375 18.304688 7.28125 18.304688 7.21875 18.304688 C 7.21875 18.28125 7.21875 18.257812 7.21875 18.234375 Z M 7.21875 18.234375 "></path>
<path style="stroke: none; fill-rule: nonzero; fill: #dde7e6; fill-opacity: 1" d="M 12.101562 12.441406 C 12.144531 12.445312 12.144531 12.445312 12.1875 12.445312 C 12.179688 12.46875 12.171875 12.492188 12.164062 12.515625 C 12.078125 12.507812 11.992188 12.5 11.90625 12.492188 C 11.992188 12.449219 12.011719 12.441406 12.101562 12.441406 Z M 12.101562 12.441406 "></path>
<path style="stroke: none; fill-rule: nonzero; fill: #e9ebe9; fill-opacity: 1" d="M 10.289062 6.796875 C 10.304688 6.8125 10.320312 6.828125 10.335938 6.84375 C 10.316406 6.859375 10.300781 6.871094 10.28125 6.886719 C 10.214844 6.933594 10.214844 6.933594 10.171875 7.007812 C 10.15625 7.007812 10.140625 7.007812 10.125 7.007812 C 10.160156 6.917969 10.21875 6.863281 10.289062 6.796875 Z M 10.289062 6.796875 "></path>
<path style="stroke: none; fill-rule: nonzero; fill: #e6eae8; fill-opacity: 1" d="M 9.796875 16.453125 C 9.8125 16.453125 9.828125 16.453125 9.84375 16.453125 C 9.84375 16.492188 9.84375 16.53125 9.84375 16.570312 C 9.804688 16.578125 9.765625 16.585938 9.726562 16.59375 C 9.769531 16.480469 9.769531 16.480469 9.796875 16.453125 Z M 9.796875 16.453125 "></path>
<path style="stroke: none; fill-rule: nonzero; fill: #e2e7e7; fill-opacity: 1" d="M 16.59375 16.382812 C 16.628906 16.414062 16.628906 16.414062 16.664062 16.453125 C 16.664062 16.46875 16.664062 16.484375 16.664062 16.5 C 16.617188 16.515625 16.570312 16.53125 16.523438 16.546875 C 16.566406 16.410156 16.566406 16.410156 16.59375 16.382812 Z M 16.59375 16.382812 "></path>
<path style="stroke: none; fill-rule: nonzero; fill: #152216; fill-opacity: 1" d="M 11.414062 9.1875 C 11.429688 9.1875 11.445312 9.1875 11.460938 9.1875 C 11.46875 9.242188 11.476562 9.296875 11.484375 9.351562 C 11.445312 9.351562 11.40625 9.351562 11.367188 9.351562 C 11.382812 9.34375 11.398438 9.335938 11.414062 9.328125 C 11.414062 9.28125 11.414062 9.234375 11.414062 9.1875 Z M 11.414062 9.1875 "></path>
<path style="stroke: none; fill-rule: nonzero; fill: #171a17; fill-opacity: 1" d="M 15.960938 16.546875 C 15.976562 16.554688 15.992188 16.5625 16.007812 16.570312 C 15.980469 16.65625 15.933594 16.695312 15.867188 16.757812 C 15.851562 16.75 15.835938 16.742188 15.820312 16.734375 C 15.867188 16.671875 15.914062 16.609375 15.960938 16.546875 Z M 15.960938 16.546875 "></path>
<path style="stroke: none; fill-rule: nonzero; fill: #222624; fill-opacity: 1" d="M 7.570312 16.265625 C 7.585938 16.289062 7.601562 16.3125 7.617188 16.335938 C 7.566406 16.414062 7.539062 16.425781 7.453125 16.453125 C 7.492188 16.390625 7.53125 16.328125 7.570312 16.265625 Z M 7.570312 16.265625 "></path>
<path style="stroke: none; fill-rule: nonzero; fill: #ecf2f2; fill-opacity: 1" d="M 7.570312 15.117188 C 7.644531 15.132812 7.710938 15.15625 7.78125 15.1875 C 7.789062 15.203125 7.796875 15.21875 7.804688 15.234375 C 7.625 15.195312 7.625 15.195312 7.570312 15.117188 Z M 7.570312 15.117188 "></path>
<path style="stroke: none; fill-rule: nonzero; fill: #c7cfca; fill-opacity: 1" d="M 20.296875 15.023438 C 20.359375 15.03125 20.421875 15.039062 20.484375 15.046875 C 20.492188 15.070312 20.5 15.09375 20.507812 15.117188 C 20.402344 15.09375 20.402344 15.09375 20.296875 15.070312 C 20.296875 15.054688 20.296875 15.039062 20.296875 15.023438 Z M 20.296875 15.023438 "></path>
<path style="stroke: none; fill-rule: nonzero; fill: #e8ede9; fill-opacity: 1" d="M 12.304688 18.46875 C 12.339844 18.472656 12.375 18.476562 12.40625 18.480469 C 12.4375 18.480469 12.4375 18.480469 12.464844 18.484375 C 12.515625 18.492188 12.515625 18.492188 12.5625 18.515625 C 12.539062 18.539062 12.539062 18.539062 12.480469 18.542969 C 12.445312 18.539062 12.445312 18.539062 12.410156 18.539062 C 12.386719 18.539062 12.359375 18.539062 12.335938 18.539062 C 12.320312 18.539062 12.300781 18.539062 12.28125 18.539062 C 12.289062 18.515625 12.296875 18.492188 12.304688 18.46875 Z M 12.304688 18.46875 "></path>
<path style="stroke: none; fill-rule: nonzero; fill: #f85e23; fill-opacity: 1" d="M 10.054688 9.398438 C 10.140625 9.398438 10.226562 9.398438 10.3125 9.398438 C 10.3125 9.40625 10.3125 9.414062 10.3125 9.421875 C 10.25 9.421875 10.1875 9.421875 10.125 9.421875 C 10.117188 9.445312 10.109375 9.46875 10.101562 9.492188 C 10.085938 9.484375 10.070312 9.476562 10.054688 9.46875 C 10.054688 9.445312 10.054688 9.421875 10.054688 9.398438 Z M 10.054688 9.398438 "></path>
<path style="stroke: none; fill-rule: nonzero; fill: #e5eae5; fill-opacity: 1" d="M 15.960938 18.445312 C 15.976562 18.476562 15.992188 18.507812 16.007812 18.539062 C 16.0625 18.539062 16.117188 18.539062 16.171875 18.539062 C 16.171875 18.546875 16.171875 18.554688 16.171875 18.5625 C 16.09375 18.5625 16.015625 18.5625 15.9375 18.5625 C 15.945312 18.523438 15.953125 18.484375 15.960938 18.445312 Z M 15.960938 18.445312 "></path>
<path style="stroke: none; fill-rule: nonzero; fill: #212621; fill-opacity: 1" d="M 6.398438 15.28125 C 6.421875 15.289062 6.445312 15.296875 6.46875 15.304688 C 6.398438 15.363281 6.398438 15.363281 6.328125 15.421875 C 6.3125 15.414062 6.296875 15.40625 6.28125 15.398438 C 6.320312 15.359375 6.359375 15.320312 6.398438 15.28125 Z M 6.398438 15.28125 "></path>
</g>
</svg>
